<?xml version="1.0" encoding="UTF-8" standalone="no"?>
<!DOCTYPE svg PUBLIC "-//W3C//DTD SVG 1.1//EN" "http://www.w3.org/Graphics/SVG/1.1/DTD/svg11.dtd">
<svg width="100%" height="100%" viewBox="0 0 51 51" version="1.1" xmlns="http://www.w3.org/2000/svg" xmlns:xlink="http://www.w3.org/1999/xlink" xml:space="preserve" xmlns:serif="http://www.serif.com/" style="fill-rule:evenodd;clip-rule:evenodd;stroke-linejoin:round;stroke-miterlimit:2;">
    <g transform="matrix(0.0726334,0,0,0.0726334,-68.5141,-110.392)">
        <path d="M1044.02,1623.52L1132.42,1711.91C1099.21,1745.15 1078.67,1791.03 1078.67,1841.67C1078.67,1937.45 1152.15,2016.19 1245.75,2024.57L1245.75,2149.9C1083.07,2141.29 953.632,2006.48 953.632,1841.67C953.632,1756.53 988.181,1679.39 1044.02,1623.52Z" style="fill:rgb(59,126,176);"/>
        <path d="M1044.02,1623.52C1099.89,1567.61 1177.08,1533.01 1262.3,1533.01C1347.51,1533.01 1424.7,1567.61 1480.57,1623.52L1262.3,1841.79L1044.02,1623.52Z" style="fill:rgb(221,221,221);"/>
        <path d="M1078.67,1841.79C1078.73,1937.51 1152.18,2016.2 1245.75,2024.57L1245.75,2149.9C1083.1,2141.29 953.684,2006.53 953.632,1841.79L1078.67,1841.79Z" style="fill:rgb(45,92,127);"/>
        <g transform="matrix(1.17005,-8.82485e-19,8.82485e-19,-1.17725,-214.654,4010.04)">
            <path d="M1262.3,1533.01L1262.3,1841.79L1262.3,1841.79L1044.02,1623.52C1099.89,1567.61 1177.08,1533.01 1262.3,1533.01L1262.3,1533.01Z" style="fill:rgb(255,135,0);"/>
        </g>
        <path d="M1044.81,2060.61C1100.63,2116.07 1177.49,2150.34 1262.3,2150.34L1262.3,2205.3L1262.29,2205.3C1162.59,2205.3 1072.27,2164.56 1006.9,2098.75L1044.81,2060.61Z" style="fill:rgb(205,108,0);"/>
        <g transform="matrix(1,0,0,1.00334,0,-7.1834)">
            <path d="M1570.96,1841.79C1570.91,2012.09 1432.62,2150.34 1262.3,2150.34L1262.3,2150.34L1262.3,2025.3L1262.3,2025.3C1363.6,2025.3 1445.86,1943.09 1445.93,1841.79L1570.96,1841.79Z" style="fill:rgb(124,124,124);"/>
        </g>
        <g transform="matrix(1,0,0,1.00247,0,-5.31572)">
            <path d="M1570.96,1841.79C1570.91,2012.09 1432.62,2150.34 1262.3,2150.34L1262.3,2150.34L1262.3,2087.65L1262.3,2087.65C1398.01,2087.65 1508.21,1977.5 1508.27,1841.79L1570.96,1841.79Z" style="fill:rgb(171,171,171);"/>
        </g>
        <g transform="matrix(12.8657,0,0,12.8657,-9715.1,-28752.7)">
            <path d="M853.227,2353.98L853.227,2353.98C859.85,2353.98 865.85,2356.67 870.193,2361.02L853.227,2377.98L853.227,2377.98L853.227,2353.98Z" style="fill:rgb(207,207,207);"/>
        </g>
        <g transform="matrix(-0.827348,-0.827348,-0.832444,0.832444,3839.84,1352.96)">
            <path d="M1262.3,1533.01L1262.3,1841.79L1262.3,1841.79L1044.02,1623.52C1099.89,1567.61 1177.08,1533.01 1262.3,1533.01L1262.3,1533.01Z" style="fill:rgb(181,181,181);"/>
        </g>
        <path d="M1480.57,1623.51L1519.34,1584.75L1519.34,1584.75C1589.84,1655.25 1624.9,1747.92 1624.59,1840.68L1570.96,1840.84C1570.74,1756.03 1536.23,1679.21 1480.57,1623.51Z" style="fill:rgb(211,211,211);"/>
    </g>
</svg>
