<svg xmlns="http://www.w3.org/2000/svg" xmlns:xlink="http://www.w3.org/1999/xlink" width="1920" height="557" viewBox="0 0 1920 557">
  <defs>
    <clipPath id="clip-path">
      <rect id="Rectangle_4" data-name="Rectangle 4" width="1666.763" height="416.439" fill="none"/>
    </clipPath>
    <clipPath id="clip-Web_1920_3">
      <rect width="1920" height="557"/>
    </clipPath>
  </defs>
  <g id="Web_1920_3" data-name="Web 1920 – 3" clip-path="url(#clip-Web_1920_3)">
    <g id="Group_7" data-name="Group 7" transform="translate(127 62)">
      <g id="Group_6" data-name="Group 6" clip-path="url(#clip-path)">
        <path id="Path_31" data-name="Path 31" d="M718.774,370.27q0-7.066-1.931-10.685t-7.02-3.618a53.942,53.942,0,0,0-6.407.282c-.942.114-1.758.208-2.45.264v27.532h8.857a9.121,9.121,0,0,0,3.628-.716,6.824,6.824,0,0,0,2.826-2.318,11.833,11.833,0,0,0,1.838-4.24,27.223,27.223,0,0,0,.659-6.5m8.386-.641a39.372,39.372,0,0,1-.989,9.366,16.625,16.625,0,0,1-3.157,6.652,13.09,13.09,0,0,1-5.653,3.938,23.893,23.893,0,0,1-8.48,1.32h-7.915V415.8h-8.2V349.842q2.354-.2,4.994-.4,2.261-.171,5.135-.227c1.916-.037,3.848-.037,5.794-.037a22.557,22.557,0,0,1,8.952,1.545,14.057,14.057,0,0,1,5.7,4.334,16.6,16.6,0,0,1,2.968,6.5,36.306,36.306,0,0,1,.848,8.066" fill="#686868"/>
        <path id="Path_32" data-name="Path 32" d="M774.083,368.385a29.026,29.026,0,0,1-2.167,12.08,12.718,12.718,0,0,1-7.255,6.671L777.569,415.8h-9.045l-12.061-27.324h-8.386V415.8h-8.2V349.842q2.355-.2,4.994-.4,2.26-.169,5.135-.226c1.916-.038,3.848-.038,5.8-.038a25.065,25.065,0,0,1,8.9,1.357,12.976,12.976,0,0,1,5.606,3.919,14.868,14.868,0,0,1,2.921,6.068,33.729,33.729,0,0,1,.848,7.858m-8.386.679c0-4.6-.628-7.915-1.884-9.988-1.257-2.091-3.549-3.109-6.879-3.109a53.7,53.7,0,0,0-6.407.283c-.942.113-1.758.207-2.45.263v25.064h8.857a11.81,11.81,0,0,0,3.581-.509,6.113,6.113,0,0,0,2.779-1.884,9.166,9.166,0,0,0,1.791-3.826,26.6,26.6,0,0,0,.612-6.294" fill="#686868"/>
        <path id="Path_33" data-name="Path 33" d="M816.577,382.519a120.275,120.275,0,0,0-.565-12.89,28.435,28.435,0,0,0-1.885-8.1,8.529,8.529,0,0,0-3.486-4.24,12.223,12.223,0,0,0-10.741,0,8.531,8.531,0,0,0-3.487,4.24,28.439,28.439,0,0,0-1.884,8.1,146.03,146.03,0,0,0,0,25.667,31.083,31.083,0,0,0,1.884,8.329A9.335,9.335,0,0,0,799.9,408.2a11.169,11.169,0,0,0,10.741,0,9.334,9.334,0,0,0,3.486-4.579,31.08,31.08,0,0,0,1.885-8.329,120.174,120.174,0,0,0,.565-12.777m8.386-.471a111.553,111.553,0,0,1-.9,15.132,33.644,33.644,0,0,1-3.109,10.742,14.89,14.89,0,0,1-6.031,6.407,23.156,23.156,0,0,1-19.315,0,14.89,14.89,0,0,1-6.031-6.407,33.619,33.619,0,0,1-3.109-10.742,111.543,111.543,0,0,1-.9-15.132,101.929,101.929,0,0,1,.9-14.454,31.047,31.047,0,0,1,3.109-10.27,14.59,14.59,0,0,1,6.031-6.125,24.14,24.14,0,0,1,19.315,0,14.59,14.59,0,0,1,6.031,6.125,31.07,31.07,0,0,1,3.109,10.27,101.938,101.938,0,0,1,.9,14.454" fill="#686868"/>
        <path id="Path_34" data-name="Path 34" d="M847.294,356.721v22.5h20.352v6.9H847.294V415.8h-8.2V349.843H870v6.878Z" fill="#686868"/>
        <path id="Path_35" data-name="Path 35" d="M882.25,415.8V349.842h30.9v6.878H890.447v21.558H910.8v6.9H890.447V408.9h22.708v6.9Z" fill="#686868"/>
        <path id="Path_36" data-name="Path 36" d="M954.708,397.029a29.681,29.681,0,0,1-1.319,9.63,13.071,13.071,0,0,1-9.658,8.951,32.171,32.171,0,0,1-7.679.829,46.422,46.422,0,0,1-5.371-.358,39.82,39.82,0,0,1-5.559-1.056v-6.859a47.422,47.422,0,0,0,11.872,1.414q4.9,0,7.114-2.827c1.475-1.885,2.214-4.806,2.214-8.782a28.976,28.976,0,0,0-.471-5.691,11.036,11.036,0,0,0-1.413-3.769,6.262,6.262,0,0,0-2.4-2.224,12.949,12.949,0,0,0-3.345-1.111A29.579,29.579,0,0,1,932,382.99a12.513,12.513,0,0,1-4.428-3.392,13.208,13.208,0,0,1-2.5-5.088,28.081,28.081,0,0,1-.8-7.161,23.27,23.27,0,0,1,1.366-8.518,14.25,14.25,0,0,1,3.863-5.616,15,15,0,0,1,5.889-3.09,27.253,27.253,0,0,1,7.444-.942,34.084,34.084,0,0,1,5.135.414,43.591,43.591,0,0,1,4.853,1v6.859c-1.634-.377-3.455-.7-5.465-.98a39.785,39.785,0,0,0-5.465-.433,11.05,11.05,0,0,0-3.439.565,7.9,7.9,0,0,0-2.921,1.791,9.415,9.415,0,0,0-2.073,3.165,12.482,12.482,0,0,0-.8,4.768,33.356,33.356,0,0,0,.283,4.749,7.939,7.939,0,0,0,1.083,3.166,5.563,5.563,0,0,0,2.214,1.922,14.808,14.808,0,0,0,3.675,1.168,29.173,29.173,0,0,1,6.125,1.885,13.632,13.632,0,0,1,4.664,3.448,15.011,15.011,0,0,1,2.968,5.71,30.744,30.744,0,0,1,1.036,8.65" fill="#686868"/>
        <path id="Path_37" data-name="Path 37" d="M994.187,397.029a29.681,29.681,0,0,1-1.319,9.63,13.071,13.071,0,0,1-9.658,8.951,32.171,32.171,0,0,1-7.679.829,46.423,46.423,0,0,1-5.371-.358,39.821,39.821,0,0,1-5.559-1.056v-6.859a47.422,47.422,0,0,0,11.872,1.414q4.9,0,7.114-2.827c1.475-1.885,2.214-4.806,2.214-8.782a28.976,28.976,0,0,0-.471-5.691,11.036,11.036,0,0,0-1.413-3.769,6.262,6.262,0,0,0-2.4-2.224,12.949,12.949,0,0,0-3.345-1.111,29.579,29.579,0,0,1-6.69-2.186,12.513,12.513,0,0,1-4.428-3.392,13.208,13.208,0,0,1-2.5-5.088,28.081,28.081,0,0,1-.8-7.161,23.27,23.27,0,0,1,1.366-8.518,14.25,14.25,0,0,1,3.863-5.616,15,15,0,0,1,5.889-3.09,27.254,27.254,0,0,1,7.444-.942,34.084,34.084,0,0,1,5.135.414,43.638,43.638,0,0,1,4.853,1v6.859c-1.634-.377-3.455-.7-5.465-.98a39.8,39.8,0,0,0-5.465-.433,11.05,11.05,0,0,0-3.439.565,7.9,7.9,0,0,0-2.921,1.791,9.415,9.415,0,0,0-2.073,3.165,12.482,12.482,0,0,0-.8,4.768,33.347,33.347,0,0,0,.283,4.749,7.939,7.939,0,0,0,1.083,3.166,5.563,5.563,0,0,0,2.214,1.922,14.808,14.808,0,0,0,3.675,1.168,29.146,29.146,0,0,1,6.124,1.885,13.626,13.626,0,0,1,4.665,3.448,15.012,15.012,0,0,1,2.968,5.71,30.744,30.744,0,0,1,1.036,8.65" fill="#686868"/>
        <path id="Path_38" data-name="Path 38" d="M1003.421,415.8v-6.9h6.6V356.72h-6.6v-6.878h21.389v6.878h-6.6V408.9h6.6v6.9Z" fill="#686868"/>
        <path id="Path_39" data-name="Path 39" d="M1066.173,382.519a120.277,120.277,0,0,0-.565-12.89,28.437,28.437,0,0,0-1.885-8.1,8.53,8.53,0,0,0-3.486-4.24,12.223,12.223,0,0,0-10.741,0,8.53,8.53,0,0,0-3.486,4.24,28.4,28.4,0,0,0-1.885,8.1,146.046,146.046,0,0,0,0,25.667,31.04,31.04,0,0,0,1.885,8.329,9.334,9.334,0,0,0,3.486,4.579,11.169,11.169,0,0,0,10.741,0,9.334,9.334,0,0,0,3.486-4.579,31.082,31.082,0,0,0,1.885-8.329,120.176,120.176,0,0,0,.565-12.777m8.386-.471a111.543,111.543,0,0,1-.9,15.132,33.613,33.613,0,0,1-3.11,10.742,14.882,14.882,0,0,1-6.03,6.407,23.157,23.157,0,0,1-19.315,0,14.89,14.89,0,0,1-6.031-6.407,33.62,33.62,0,0,1-3.109-10.742,111.562,111.562,0,0,1-.9-15.132,101.947,101.947,0,0,1,.9-14.454,31.049,31.049,0,0,1,3.109-10.27,14.591,14.591,0,0,1,6.031-6.125,24.14,24.14,0,0,1,19.315,0,14.582,14.582,0,0,1,6.03,6.125,31.042,31.042,0,0,1,3.11,10.27,101.929,101.929,0,0,1,.9,14.454" fill="#686868"/>
        <path id="Path_40" data-name="Path 40" d="M1110.741,415.8l-14.416-58.983V415.8h-7.632V349.842h13.38l14.51,58.965V349.842h7.632V415.8Z" fill="#686868"/>
        <path id="Path_41" data-name="Path 41" d="M1155.78,356.042l-7.632,36.012h15.358Zm12.814,59.756-3.581-16.677H1146.64l-3.675,16.677h-8.385l15.923-65.956h10.836L1176.98,415.8Z" fill="#686868"/>
        <path id="Path_42" data-name="Path 42" d="M1187.344,415.8V349.842h8.2v58.8h21.012V415.8Z" fill="#686868"/>
        <path id="Path_43" data-name="Path 43" d="M77.01,213.957q0-24.153-2.012-38.9T69.229,152.24q-3.756-8.043-8.721-10.724a23.062,23.062,0,0,0-11.136-2.689q-3.756,0-8.184.14c-2.952.093-5.768.218-8.452.4-3.22.171-6.35.358-9.392.529V290.158c2.684.187,5.546.358,8.587.544,2.5.171,5.278.311,8.318.4s5.993.125,8.854.125a19.149,19.149,0,0,0,11.4-3.746q5.232-3.753,8.854-12.744T75,250.853a282.722,282.722,0,0,0,2.012-36.9m23.882-1.881q0,30.073-3.357,49.237-3.357,19.187-10.2,30.2T70.3,306.664a61.984,61.984,0,0,1-23.611,4.165q-7.782,0-15.967-.14t-15.159-.668Q7.513,309.486,0,308.949V121.125q7.246-.537,14.759-1.072c4.293-.358,8.988-.591,14.087-.669q7.647-.14,14.623-.14A83.767,83.767,0,0,1,68.423,122.6,34.592,34.592,0,0,1,86.4,136.014q7.245,10.071,10.87,28.178t3.621,47.884" fill="#d50053"/>
        <path id="Path_44" data-name="Path 44" d="M180.047,138.826l-21.728,102.5h43.735Zm36.492,170.122-10.2-47.5H154.014l-10.46,47.5H119.666l45.352-187.824h30.866l44.527,187.824Z" fill="#d50053"/>
        <path id="Path_45" data-name="Path 45" d="M302.408,141.516V308.948H279.064V141.516H237.738V121.125h105.98v20.391Z" fill="#d50053"/>
        <path id="Path_46" data-name="Path 46" d="M401.41,138.826l-21.728,102.5h43.735ZM437.9,308.948l-10.2-47.5H375.393l-10.476,47.5H341.045l45.336-187.824h30.866L461.79,308.948Z" fill="#d50053"/>
        <path id="Path_47" data-name="Path 47" d="M535.847,308.948H503.909L467.152,121.124H490.76L520.274,285.34l31.939-164.216h23.079Z" fill="#292929"/>
        <path id="Path_48" data-name="Path 48" d="M596.756,308.948V289.365h18.775V140.707H596.756V121.124h60.909v19.583H638.874V289.365h18.791v19.583Z" fill="#292929"/>
        <path id="Path_49" data-name="Path 49" d="M692.54,308.948V121.124h88.014v19.583h-64.67V202.16h57.971v19.582H715.884v67.623h64.67v19.583Z" fill="#292929"/>
        <path id="Path_50" data-name="Path 50" d="M932.165,308.948H895.673l-17.982-81.564-19.583,81.564H823.216l-9.123-187.824h20.671l8.051,173.059,24.136-93.9h22.008l24.416,93.9,8.315-173.059h19.6Z" fill="#292929"/>
        <path id="Path_51" data-name="Path 51" d="M977.5,308.948V121.124h88.014v19.583h-64.67V202.16H1058.8v19.582h-57.956v67.623h64.67v19.583Z" fill="#292929"/>
        <path id="Path_52" data-name="Path 52" d="M1201.833,173.982q0,20.936-6.187,34.348-6.153,13.4-20.654,19.054l36.757,81.564h-25.754l-34.348-77.818H1127.76v77.818h-23.344V121.124q6.712-.536,14.22-1.072c4.306-.357,9.171-.591,14.625-.668q8.184-.141,16.507-.14,15.293,0,25.363,3.885a37.544,37.544,0,0,1,15.962,11.144,42.9,42.9,0,0,1,8.314,17.3,95.7,95.7,0,0,1,2.426,22.411m-23.888,1.881q0-19.583-5.362-28.442-5.385-8.859-19.6-8.859a164.294,164.294,0,0,0-18.246.808c-2.673.358-5,.622-6.978.793v71.384h25.224a33.1,33.1,0,0,0,10.2-1.476,17.48,17.48,0,0,0,7.925-5.362,26.354,26.354,0,0,0,5.1-10.88,75.83,75.83,0,0,0,1.742-17.966" fill="#292929"/>
        <path id="Path_53" data-name="Path 53" d="M1530.741,230.228c-14.675,0-33.295,15.464-47.971,15.464s-31.717-15.464-46.392-15.464-31.718,15.464-46.393,15.464-31.718-15.464-46.393-15.464h-20.671l16.253,171.527c.789,7.89,7.1,13.886,14.517,13.886h163.637a14.777,14.777,0,0,0,14.517-13.886L1548.1,230.228h-17.358Z" fill="#d50053"/>
        <path id="Path_54" data-name="Path 54" d="M1531.057,132.867l-24.3,256.579H1364.422l-24.3-256.579Zm12.624-26.2H1327.5c-8.679,0-15.464,7.89-14.675,17.042l26.353,278.041c.789,7.89,7.1,14.044,14.675,14.044h163.636c7.575,0,13.887-6,14.676-14.044l26.352-278.041c.789-9.152-6-17.042-14.675-17.042Z"/>
        <path id="Path_55" data-name="Path 55" d="M1552.359,221.233A106.83,106.83,0,1,1,1659.188,114.4a107.011,107.011,0,0,1-106.829,106.829" fill="#d50053"/>
        <path id="Path_56" data-name="Path 56" d="M1552.359,15.149A99.255,99.255,0,1,1,1453.1,114.4a99.333,99.333,0,0,1,99.255-99.255m0-15.149a114.4,114.4,0,1,0,114.4,114.4A114.486,114.486,0,0,0,1552.359,0" fill="#fff"/>
        <path id="Path_57" data-name="Path 57" d="M1552.359,35.031a79.373,79.373,0,1,1-79.372,79.373,79.373,79.373,0,0,1,79.372-79.373" fill="#e3558c"/>
        <path id="Path_58" data-name="Path 58" d="M1552.359,35.031a79.373,79.373,0,1,0,79.373,79.373,79.332,79.332,0,0,0-79.373-79.373m3.945,69.747V47.5a67.042,67.042,0,0,1,40.4,16.727l-40.4,40.4Zm-8.048,0-40.4-40.4a67.042,67.042,0,0,1,40.4-16.727v57.123Zm0,19.252v57.123a67.042,67.042,0,0,1-40.4-16.727Zm8.048,0,40.4,40.4a67.042,67.042,0,0,1-40.4,16.727V124.03Zm62.962-13.571h-57.281l40.4-40.4a66.117,66.117,0,0,1,16.727,40.4ZM1502.179,69.9l40.4,40.4H1485.3a67.04,67.04,0,0,1,16.726-40.4Zm-16.726,48.444h57.281l-40.4,40.4a67.041,67.041,0,0,1-16.726-40.4ZM1602.381,158.9l-40.554-40.4h57.281a67.042,67.042,0,0,1-16.727,40.4" fill="#fff"/>
      </g>
    </g>
  </g>
</svg>
