<?xml version="1.0" encoding="UTF-8"?>
<svg id="Layer_1" xmlns="http://www.w3.org/2000/svg" version="1.1" xmlns:xlink="http://www.w3.org/1999/xlink" viewBox="0 0 1920 557">
  <!-- Generator: Adobe Illustrator 30.3.0, SVG Export Plug-In . SVG Version: 2.1.3 Build 182)  -->
  <defs>
    <style>
      .st0 {
        fill: #e3558c;
      }

      .st1 {
        fill: #fff;
      }

      .st2 {
        fill: none;
      }

      .st3 {
        clip-path: url(#clippath-1);
      }

      .st4 {
        fill: #686868;
      }

      .st5 {
        fill: #d50053;
      }

      .st6 {
        fill: #1d1d1b;
      }

      .st7 {
        clip-path: url(#clippath);
      }
    </style>
    <clipPath id="clippath">
      <rect class="st2" width="1920" height="557"/>
    </clipPath>
    <clipPath id="clippath-1">
      <rect class="st2" x="-55.1" y="19.5" width="1983" height="495.4"/>
    </clipPath>
  </defs>
  <g class="st7">
    <g id="Web_1920_3">
      <g id="Group_7">
        <g class="st3">
          <g id="Group_6">
            <path id="Path_31" class="st4" d="M800.1,460c0-5.6-.7-9.9-2.3-12.7s-4.3-4.3-8.3-4.3-5.1,0-7.6.4c-1.1.1-2.1.2-3,.4v32.7h10.6c1.4,0,3-.2,4.3-.8s2.5-1.5,3.3-2.7c1.1-1.5,1.8-3.2,2.1-5,.6-2.5.8-5.1.8-7.7M810.1,459.2c0,3.8-.4,7.5-1.2,11.2-.6,2.9-1.9,5.6-3.8,8-1.8,2.1-4.2,3.8-6.8,4.6-3.2,1.1-6.7,1.7-10.1,1.5h-9.4v29.6h-9.8v-78.5c1.9-.1,3.8-.4,5.9-.5,1.8-.1,3.8-.2,6.1-.2h6.9c3.7,0,7.3.5,10.7,1.8,2.6,1.1,5,2.9,6.8,5.1,1.7,2.3,3,4.9,3.6,7.7.7,3.1,1.1,6.4,1,9.6"/>
            <path id="Path_32" class="st4" d="M865.9,457.8c.1,4.9-.7,9.9-2.6,14.4-1.7,3.7-4.8,6.5-8.7,8l15.3,34.1h-10.7l-14.4-32.5h-10v32.5h-9.8v-78.5c1.9-.1,3.8-.4,5.9-.5,1.8-.1,3.8-.2,6.1-.2h6.9c3.6,0,7.1.5,10.6,1.7,2.6,1,4.9,2.5,6.7,4.6,1.7,2.1,2.9,4.5,3.5,7.3.7,3.1,1.1,6.2,1,9.4M855.9,458.6c0-5.5-.7-9.4-2.3-11.9-1.5-2.5-4.2-3.7-8.2-3.7s-5.1,0-7.6.4c-1.1.1-2.1.2-3,.4v29.9h10.6c1.4,0,2.9-.2,4.3-.6,1.3-.5,2.4-1.2,3.3-2.3,1.1-1.3,1.8-2.9,2.1-4.5.6-2.5.8-5,.7-7.5"/>
            <path id="Path_33" class="st4" d="M916.4,474.5c0-5.1-.1-10.2-.7-15.3-.2-3.3-1.1-6.5-2.3-9.6-.8-2.1-2.3-3.8-4.2-5-4-2-8.8-2-12.7,0-1.9,1.2-3.3,3-4.2,5-1.2,3.1-2,6.3-2.3,9.6-1,10.1-1,20.3,0,30.6.2,3.3,1.1,6.8,2.3,9.9.8,2.3,2.3,4.2,4.2,5.5,3.9,2.1,8.8,2.1,12.7,0,1.9-1.3,3.3-3.2,4.2-5.5,1.2-3.2,1.9-6.5,2.3-9.9.5-5,.7-10.1.7-15.2M926.4,473.9c0,6.1-.4,12-1.1,18-.5,4.4-1.8,8.8-3.7,12.7-1.5,3.2-4,5.8-7.1,7.6-7.3,3.3-15.7,3.3-23,0-3.1-1.8-5.6-4.4-7.1-7.6-1.9-4-3.2-8.3-3.7-12.7-.7-5.9-1.1-12-1.1-18s.4-11.5,1.1-17.3c.5-4.3,1.8-8.4,3.7-12.3,1.5-3.1,4.2-5.6,7.1-7.3,7.4-3.2,15.7-3.2,23,0,3.1,1.7,5.6,4.2,7.1,7.3,1.9,3.8,3.2,8,3.7,12.3.7,5.7,1.1,11.4,1.1,17.3"/>
            <path id="Path_34" class="st4" d="M952.9,443.8v26.8h24.3v8.2h-24.3v35.3h-9.8v-78.5h36.8v8.2h-27Z"/>
            <path id="Path_35" class="st4" d="M994.5,514.2v-78.5h36.8v8.2h-27v25.7h24.3v8.2h-24.3v28.2h27v8.2h-36.8,0Z"/>
            <path id="Path_36" class="st4" d="M1080.7,491.8c0,3.9-.5,7.7-1.5,11.4-1.7,5.4-6.1,9.4-11.5,10.7-3,.7-6.1,1.1-9.2,1-2.1,0-4.3-.1-6.4-.5-2.3-.2-4.4-.7-6.7-1.3v-8.2c4.6,1.2,9.4,1.7,14.2,1.7s6.7-1.1,8.4-3.3,2.6-5.7,2.6-10.5-.1-4.5-.6-6.8c-.2-1.5-.8-3.1-1.7-4.5-.7-1.1-1.7-2-2.9-2.6-1.3-.6-2.6-1.1-3.9-1.3-2.7-.6-5.5-1.4-8-2.6-2-1-3.8-2.3-5.2-4-1.4-1.8-2.4-3.8-3-6.1-.7-2.7-1-5.6-1-8.6s.5-6.9,1.7-10.1c1-2.6,2.5-4.9,4.6-6.7,2-1.8,4.4-3,7-3.7,2.9-.8,5.8-1.2,8.8-1.1,2,0,4,.1,6.1.5,1.9.2,3.9.7,5.8,1.2v8.2c-1.9-.5-4.2-.8-6.5-1.2-2.1-.4-4.3-.5-6.5-.5s-2.7.2-4,.7-2.5,1.2-3.5,2.1c-1.1,1.1-1.9,2.4-2.5,3.8-.7,1.8-1,3.7-1,5.7s0,3.8.4,5.6c.1,1.3.6,2.6,1.3,3.8.7,1,1.5,1.8,2.6,2.3,1.4.6,2.9,1.1,4.4,1.4,2.5.5,5,1.2,7.3,2.3,2.1,1,4,2.4,5.6,4,1.7,2,2.9,4.3,3.6,6.8,1,3.3,1.3,6.8,1.2,10.2"/>
            <path id="Path_37" class="st4" d="M1127.7,491.8c0,3.9-.5,7.7-1.5,11.4-1.7,5.4-6.1,9.4-11.5,10.7-3,.7-6.1,1.1-9.2,1-2.1,0-4.3-.1-6.4-.5-2.3-.2-4.4-.7-6.7-1.3v-8.2c4.6,1.2,9.4,1.7,14.2,1.7s6.7-1.1,8.4-3.3,2.6-5.7,2.6-10.5-.1-4.5-.6-6.8c-.2-1.5-.8-3.1-1.7-4.5-.7-1.1-1.7-2-2.9-2.6-1.3-.6-2.6-1.1-3.9-1.3-2.7-.6-5.5-1.4-8-2.6-2-1-3.8-2.3-5.2-4-1.4-1.8-2.4-3.8-3-6.1-.7-2.7-1-5.6-1-8.6s.5-6.9,1.7-10.1c1-2.6,2.5-4.9,4.6-6.7,2-1.8,4.4-3,7-3.7,2.9-.8,5.8-1.2,8.8-1.1,2,0,4,.1,6.1.5,1.9.2,3.9.7,5.8,1.2v8.2c-1.9-.5-4.2-.8-6.5-1.2-2.1-.4-4.3-.5-6.5-.5s-2.7.2-4,.7-2.5,1.2-3.5,2.1c-1.1,1.1-1.9,2.4-2.5,3.8-.7,1.8-1,3.7-1,5.7s0,3.8.4,5.6c.1,1.3.6,2.6,1.3,3.8.7,1,1.5,1.8,2.6,2.3,1.4.6,2.9,1.1,4.4,1.4,2.5.5,5,1.2,7.3,2.3,2.1,1,4,2.4,5.6,4,1.7,2,2.9,4.3,3.6,6.8,1,3.3,1.3,6.8,1.2,10.2"/>
            <path id="Path_38" class="st4" d="M1138.6,514.2v-8.2h7.9v-62.1h-7.9v-8.2h25.5v8.2h-7.9v62.1h7.9v8.2h-25.5Z"/>
            <path id="Path_39" class="st4" d="M1213.4,474.5c0-5.1-.1-10.2-.7-15.3-.2-3.3-1.1-6.5-2.3-9.6-.8-2.1-2.3-3.8-4.2-5-4-2-8.8-2-12.7,0-1.9,1.2-3.3,3-4.2,5-1.2,3.1-2,6.3-2.3,9.6-1,10.1-1,20.3,0,30.6.2,3.3,1.1,6.8,2.3,9.9.8,2.3,2.3,4.2,4.2,5.5,3.9,2.1,8.8,2.1,12.7,0,1.9-1.3,3.3-3.2,4.2-5.5,1.2-3.2,1.9-6.5,2.3-9.9.5-5,.7-10.1.7-15.2M1223.4,473.9c0,6.1-.4,12-1.1,18-.5,4.4-1.8,8.8-3.7,12.7-1.5,3.2-4,5.8-7.1,7.6-7.3,3.3-15.7,3.3-23,0-3.1-1.8-5.6-4.4-7.1-7.6-1.9-4-3.2-8.3-3.7-12.7-.7-5.9-1.1-12-1.1-18s.4-11.5,1.1-17.3c.5-4.3,1.8-8.4,3.7-12.3,1.5-3.1,4.2-5.6,7.1-7.3,7.4-3.2,15.7-3.2,23,0,3.1,1.7,5.6,4.2,7.1,7.3,1.9,3.8,3.2,8,3.7,12.3.7,5.7,1.1,11.4,1.1,17.3"/>
            <path id="Path_40" class="st4" d="M1266.3,514.2l-17.1-70.2v70.2h-9v-78.5h15.9l17.3,70.2v-70.2h9v78.5h-16.1Z"/>
            <path id="Path_41" class="st4" d="M1320,443l-9,42.8h18.3l-9.2-42.8h-.1ZM1335.2,514.2l-4.3-19.9h-21.9l-4.4,19.9h-10l18.9-78.5h12.8l18.6,78.5h-10,.2Z"/>
            <path id="Path_42" class="st4" d="M1357.4,514.2v-78.5h9.8v70h25v8.6h-34.7Z"/>
            <path id="Path_53" class="st5" d="M1766,293.3c-17.5,0-39.6,18.4-57.1,18.4s-37.7-18.4-55.2-18.4-37.7,18.4-55.2,18.4-37.7-18.4-55.2-18.4h-24.6l19.4,204c1,9.4,8.4,16.5,17.3,16.5h194.6c9.2-.1,16.8-7.4,17.3-16.5l19.4-204h-20.7.1Z"/>
            <path id="Path_54" d="M1766.5,177.6l-28.9,305.3h-169.3l-28.9-305.3h227.1ZM1781.4,146.4h-257.2c-10.4,0-18.4,9.4-17.5,20.2l31.4,330.7c1,9.4,8.4,16.7,17.5,16.7h194.6c9,0,16.5-7.1,17.5-16.7l31.4-330.7c1-10.9-7.1-20.2-17.5-20.2h-.2Z"/>
            <path id="Path_55" class="st5" d="M1791.8,282.6c-70.2,0-127.1-56.9-127.1-127.1s56.9-127.1,127.1-127.1,127.1,56.9,127.1,127.1c-.1,70.2-57,126.9-127.1,127.1"/>
            <path id="Path_56" class="st1" d="M1791.8,37.4c65.2,0,118.1,52.8,118.1,118.1s-52.8,118.1-118.1,118.1-118.1-52.8-118.1-118.1,52.9-118,118.1-118.1M1791.8,19.5c-75.2,0-136.1,60.9-136.1,136.1s60.9,136.1,136.1,136.1,136.1-60.9,136.1-136.1-60.9-136-136.1-136.1"/>
            <path id="Path_57" class="st0" d="M1791.8,61.1c52.1,0,94.5,42.2,94.5,94.5s-42.2,94.5-94.5,94.5-94.5-42.2-94.5-94.5h0c0-52.1,42.2-94.5,94.5-94.5"/>
            <path id="Path_58" class="st1" d="M1791.8,61.1c-52.1,0-94.5,42.2-94.5,94.5s42.2,94.5,94.5,94.5,94.5-42.2,94.5-94.5-42.2-94.5-94.3-94.5h0M1796.4,144.2v-68.2c17.8,1.1,34.7,8.1,48.1,19.9l-48.1,48.1v.2ZM1786.9,144.2l-48.1-48.1c13.3-11.8,30.2-18.8,48.1-19.9v67.9h0ZM1786.9,167v67.9c-17.8-1.1-34.7-8.1-48.1-19.9l48.1-48.1ZM1796.4,167l48.1,48.1c-13.3,11.8-30.2,18.8-48.1,19.9v-67.9ZM1871.4,150.9h-68.2l48.1-48.1c11.9,13.3,18.9,30.2,19.9,48.1h.2ZM1732.1,102.6l48.1,48.1h-68.2c1.1-17.8,8.1-34.7,19.9-48.1h.2ZM1712.2,160.2h68.2l-48.1,48.1c-11.8-13.3-18.8-30.2-19.9-48.1h-.2ZM1851.3,208.5l-48.3-48.1h68.2c-1.1,17.8-8.1,34.7-19.9,48.1"/>
            <g>
              <path class="st6" d="M101,182.7v202h-28.1v-202H23.1v-24.6h127.8v24.6h-49.8Z"/>
              <path class="st6" d="M297.5,269c0,19.9-1.1,37.1-3.1,51.9-2.1,14.8-5.6,27-10.7,36.9-5.1,9.8-12,17.1-20.7,22-8.7,4.9-19.7,7.4-33.2,7.4s-24.4-2.5-33.2-7.4c-8.7-4.9-15.7-12.3-20.7-22-5.1-9.9-8.6-22.1-10.7-36.9-2.1-14.8-3-32-3-51.9s1.1-35.6,3-49.7c2.1-14.2,5.6-25.9,10.7-35.3,5.1-9.4,12-16.4,20.7-21.1s19.7-7,33.2-7,24.4,2.4,33.2,7,15.7,11.7,20.7,21.1c5,9.4,8.6,21.2,10.7,35.3s3.1,30.7,3.1,49.7ZM268.7,270.6c0-17.8-.7-32.6-2-44.4s-3.5-20.9-6.5-27.8c-3-6.9-7-11.8-12-14.5s-11.2-4.2-18.4-4.2-13.4,1.4-18.4,4.2-8.9,7.6-12,14.5c-3,6.9-5.2,16.2-6.5,27.8s-2,26.5-2,44.4.7,32,2,43.9,3.5,21.3,6.5,28.7c3,7.4,7,12.5,12,15.7,5,3.1,11.2,4.6,18.4,4.6s13.4-1.5,18.4-4.6,8.9-8.3,12-15.7c3-7.4,5.2-16.9,6.5-28.7,1.3-11.9,2-26.4,2-43.9Z"/>
              <path class="st6" d="M405.6,384.7l-49.5-202.6v202.6h-26.3v-226.5h46l49.8,202.6v-202.6h26.3v226.5h-46.4Z"/>
              <path class="st6" d="M482.5,384.7v-23.6h22.6v-179.3h-22.6v-23.6h73.4v23.6h-22.6v179.3h22.6v23.6h-73.4Z"/>
              <path class="st6" d="M680.4,381.5c-1.8.5-4,1-7.1,1.7-3,.7-6.2,1.3-9.5,1.8-3.3.6-6.8,1.1-10.2,1.5-3.5.5-6.5.7-9,.7-11.7,0-21.7-1.7-29.7-5-8.2-3.3-15-9.4-20.2-18.2s-9.2-21.1-11.7-36.4c-2.5-15.3-3.7-35.2-3.7-59.4s1.4-43.2,4.2-57.7c2.7-14.5,7.1-25.9,12.7-34,5.7-8.1,12.8-13.4,21.5-16.2,8.6-2.6,18.9-4,30.8-4s10.7.5,16.7,1.5c5.9,1,11.1,2,15.3,3v23.9c-5.4-1.3-11.5-2.4-18.2-3s-13.3-1.2-19.6-1.2-10.9,1.1-15.3,3-8,6.3-10.8,12.6-4.9,15.5-6.3,27.1c-1.4,11.8-2.1,27.4-2.1,47s.8,36.5,2.4,48.7c1.5,12.3,3.7,21.5,6.7,28,3,6.4,6.5,10.7,10.8,12.7,4.3,2.1,9.4,3,15.2,3s13.6-.6,20.7-1.7,12.7-2.3,16.9-3.2v23.6h0l-.2.2Z"/>
              <path class="st5" d="M787.4,182.7v202h-28.1v-202h-49.8v-24.6h127.8v24.6h-49.8Z"/>
              <path class="st5" d="M935.7,279.7v105.2h-29.1v-105.2l-57.9-121.3h31.1l42.7,94.2,42.7-94.2h29.5l-58.9,121.3Z"/>
              <path class="st5" d="M1132.1,226.2c0,12.3-1.2,23-3.3,32.1-2.4,9.2-5.9,16.8-10.8,22.7-5,6.1-11.4,10.6-19.4,13.6-8,3-17.6,4.5-29.1,4.5h-27.1v85.5h-28.1v-226.5c5.4-.5,11.2-.8,17.1-1.3,5.2-.5,11.1-.7,17.6-.8h19.9c12.3,0,22.5,1.8,30.8,5.4,8.2,3.6,14.8,8.4,19.6,14.9,4.9,6.4,8.2,13.8,10.2,22.2,2,8.4,2.9,17.7,2.9,27.6h-.2ZM1103.3,228.4c0-16.2-2.3-28.4-6.7-36.8-4.4-8.3-12.4-12.4-24.2-12.4s-16.4.4-22,1c-3.2.5-6.1.8-8.3,1v94.5h30.5c4.5,0,8.7-.8,12.4-2.5,3.8-1.7,7-4.3,9.8-7.9,2.6-3.7,4.8-8.4,6.3-14.5s2.3-13.4,2.3-22.2h0Z"/>
              <path class="st5" d="M1156.4,384.7v-226.5h106.1v23.6h-77.9v74.1h70v23.6h-70v81.5h77.9v23.6h-106.1v.2Z"/>
              <path class="st5" d="M1389.1,320.4c0,13.3-1.5,24.4-4.5,33-3,8.6-7.4,15.5-12.8,20.3-5.6,5-12.3,8.3-20.2,10.4-7.9,2-16.8,2.9-26.4,2.9s-11.3-.5-18.4-1.3c-7.1-1-13.4-2.1-19-3.6v-23.6c5,1.3,10.8,2.5,17.4,3.3,6.8,1,14.5,1.4,23.3,1.4s19.4-3.2,24.4-9.8c5.1-6.5,7.5-16.5,7.5-30.1s-.6-14.3-1.7-19.6-2.6-9.6-4.9-13-4.9-5.9-8.2-7.5-7.3-3-11.5-3.8c-9-2-16.8-4.4-23-7.4-6.2-3-11.4-6.9-15.2-11.7-3.8-4.8-6.8-10.6-8.6-17.4-1.9-6.9-2.7-15.1-2.7-24.6s1.5-21.4,4.6-29.3,7.5-14.3,13.2-19.3c5.7-5,12.4-8.4,20.2-10.7,7.7-2.1,16.3-3.2,25.6-3.2s11.3.5,17.6,1.5c6.4,1,12,2.1,16.8,3.3v23.6c-5.6-1.3-11.9-2.5-18.8-3.3-6.9-1-13.1-1.4-18.8-1.4s-8,.7-11.9,2c-3.8,1.3-7.1,3.3-10,6.2-2.9,2.7-5.4,6.4-7.1,10.8-1.9,4.4-2.7,9.9-2.7,16.4s.4,12,1,16.4c.7,4.4,1.9,8,3.7,10.8,1.9,2.7,4.4,5,7.5,6.7,3.2,1.7,7.4,3,12.6,4,7.7,1.5,14.8,3.7,21.1,6.5,6.3,2.7,11.7,6.8,16.1,11.9s7.7,11.7,10.2,19.6c2.4,8,3.6,17.8,3.6,29.7h.2v-.5Z"/>
            </g>
          </g>
        </g>
      </g>
    </g>
  </g>
</svg>