<svg xmlns="http://www.w3.org/2000/svg" xmlns:xlink="http://www.w3.org/1999/xlink" width="1920" height="557" viewBox="0 0 1920 557">
  <defs>
    <clipPath id="clip-path">
      <rect id="Rectangle_3" data-name="Rectangle 3" width="2217.454" height="446.742" fill="none"/>
    </clipPath>
    <clipPath id="clip-Web_1920_2">
      <rect width="1920" height="557"/>
    </clipPath>
  </defs>
  <g id="Web_1920_2" data-name="Web 1920 – 2" clip-path="url(#clip-Web_1920_2)">
    <g id="Group_5" data-name="Group 5" transform="translate(-125.333 42.922)">
      <g id="Group_4" data-name="Group 4">
        <g id="Group_3" data-name="Group 3" clip-path="url(#clip-path)">
          <path id="Path_16" data-name="Path 16" d="M308.929,31.61,289.818,233.388H177.884L158.774,31.61H308.929m9.928-20.6H148.846c-6.825,0-12.161,6.2-11.541,13.4l20.724,218.655c.62,6.2,5.584,11.044,11.541,11.044H298.256c5.957,0,10.92-4.716,11.541-11.044L330.521,24.412c.62-7.2-4.716-13.4-11.541-13.4Z" transform="translate(1566.023 125.619)" fill="#fff"/>
          <path id="Path_17" data-name="Path 17" d="M229.672,172.755a84.012,84.012,0,1,1,84.012-84.012,84.155,84.155,0,0,1-84.012,84.012" transform="translate(1661.908 53.967)" fill="#d50053"/>
          <path id="Path_18" data-name="Path 18" d="M235.149,16.163a78.056,78.056,0,1,1-78.056,78.056,78.117,78.117,0,0,1,78.056-78.056m0-11.913a89.969,89.969,0,1,0,89.969,89.969A90.034,90.034,0,0,0,235.149,4.25" transform="translate(1656.432 48.49)"/>
          <path id="Path_19" data-name="Path 19" d="M209.82,6.47A62.42,62.42,0,1,1,147.4,68.89,62.42,62.42,0,0,1,209.82,6.47" transform="translate(1681.761 73.819)" fill="#e3558c"/>
          <path id="Path_20" data-name="Path 20" d="M209.82,6.47a62.42,62.42,0,1,0,62.42,62.42A62.388,62.388,0,0,0,209.82,6.47m3.227,54.85V16.274a52.724,52.724,0,0,1,31.768,13.154L213.047,61.2Zm-6.329,0L174.949,29.552A52.724,52.724,0,0,1,206.718,16.4V61.32Zm0,15.14v44.922a52.724,52.724,0,0,1-31.768-13.154Zm6.329,0,31.768,31.768a52.724,52.724,0,0,1-31.768,13.154V76.46Zm49.39-10.672H217.39l31.768-31.768a51.993,51.993,0,0,1,13.154,31.768ZM170.482,33.9,202.25,65.663H157.2A52.723,52.723,0,0,1,170.358,33.9Zm-13.154,38.1h45.047l-31.768,31.768a52.722,52.722,0,0,1-13.154-31.768Zm91.954,31.892L217.39,72.116h45.046a52.723,52.723,0,0,1-13.154,31.768" transform="translate(1681.761 73.819)" fill="#fff"/>
          <path id="Path_21" data-name="Path 21" d="M95.919,37.129V250.548h-29.7V37.129H13.569V11.106h135V37.129Z" transform="translate(154.819 126.717)" fill="#fff"/>
          <path id="Path_22" data-name="Path 22" d="M168.4,130.336q0,31.477-3.313,54.85c-2.209,15.586-5.895,28.592-11.293,39.028-5.4,10.312-12.645,18.167-21.853,23.193s-20.86,7.731-35.094,7.731-25.775-2.581-35.094-7.731A54.1,54.1,0,0,1,39.9,224.214c-5.4-10.436-9.084-23.317-11.293-39.028-2.209-15.586-3.189-33.866-3.189-54.85s1.1-37.564,3.189-52.529C30.815,62.828,34.5,50.431,39.9,40.491s12.645-17.3,21.853-22.213,20.86-7.359,35.094-7.359,25.775,2.457,35.094,7.359a51.691,51.691,0,0,1,21.853,22.213c5.274,9.94,9.084,22.337,11.293,37.315s3.313,32.4,3.313,52.529m-30.44,1.713a443.178,443.178,0,0,0-2.085-46.883c-1.353-12.4-3.686-22.089-6.875-29.448-3.189-7.247-7.359-12.4-12.645-15.338s-11.777-4.418-19.508-4.418-14.234,1.464-19.508,4.418S67.882,48.47,64.693,55.717s-5.522,17.051-6.875,29.448a443.169,443.169,0,0,0-2.085,46.883,434.441,434.441,0,0,0,2.085,46.387c1.353,12.521,3.686,22.461,6.875,30.316,3.189,7.731,7.359,13.253,12.645,16.567s11.777,4.914,19.508,4.914,14.234-1.6,19.508-4.914,9.456-8.836,12.645-16.567,5.522-17.8,6.875-30.316a439.449,439.449,0,0,0,2.085-46.387" transform="translate(289.995 124.58)" fill="#fff"/>
          <path id="Path_23" data-name="Path 23" d="M119.7,250.434,67.423,36.407V250.434H39.688V11.116h48.6l52.653,214.039V11.116h27.735V250.434H119.7Z" transform="translate(452.816 126.83)" fill="#fff"/>
          <path id="Path_24" data-name="Path 24" d="M52.692,250.319V225.4H76.618V36.044H52.692V11.126h77.559V36.044H106.326V225.4h23.925v24.918Z" transform="translate(601.193 126.944)" fill="#fff"/>
          <path id="Path_25" data-name="Path 25" d="M167.815,249.027c-1.837.5-4.294.98-7.483,1.712s-6.5,1.353-10.064,1.849c-3.562.608-7.123,1.1-10.8,1.588a73.084,73.084,0,0,1-9.58.745c-12.273,0-22.821-1.725-31.421-5.286-8.712-3.549-15.822-9.94-21.344-19.26s-9.7-22.213-12.273-38.42S60.92,154.777,60.92,129.25,62.4,83.6,65.338,68.258s7.5-27.375,13.5-35.963,13.626-14.234,22.709-17.063,20-4.294,32.513-4.294a100.454,100.454,0,0,1,17.559,1.6c6.254.98,11.653,2.085,16.194,3.189V41.006a153.207,153.207,0,0,0-19.272-3.189,204.878,204.878,0,0,0-20.736-1.229,39.312,39.312,0,0,0-16.194,3.189c-4.666,2.1-8.476,6.627-11.417,13.377s-5.15,16.331-6.627,28.716-2.209,28.964-2.209,49.712.856,38.531,2.457,51.413,3.921,22.709,6.987,29.584,6.875,11.293,11.417,13.5,9.94,3.189,16.083,3.189a149.453,149.453,0,0,0,21.841-1.725,178.1,178.1,0,0,0,17.8-3.437v24.918Z" transform="translate(695.067 124.797)" fill="#fff"/>
          <path id="Path_26" data-name="Path 26" d="M154.366,37.129V250.548h-29.7V37.129H72.016V11.106h135V37.129Z" transform="translate(821.67 126.717)" fill="#d50053"/>
          <path id="Path_27" data-name="Path 27" d="M175.9,139.368V250.434H145.1V139.368L83.854,11.116h32.761l45.171,99.537,45.158-99.537h31.173L175.9,139.368" transform="translate(956.736 126.83)" fill="#d50053"/>
          <path id="Path_28" data-name="Path 28" d="M222.638,85.051a145.906,145.906,0,0,1-3.562,33.99c-2.457,9.7-6.267,17.684-11.417,24.062a47.776,47.776,0,0,1-20.488,14.358c-8.476,3.189-18.664,4.79-30.813,4.79H127.643v90.316h-29.7V13.262c5.646-.5,11.777-.856,18.168-1.353,5.522-.5,11.652-.732,18.651-.856,6.987,0,13.986-.124,20.985-.124,13.005,0,23.8,1.837,32.525,5.646s15.574,8.96,20.736,15.71a61.038,61.038,0,0,1,10.8,23.553,129.391,129.391,0,0,1,3.065,29.212ZM192.2,87.384c0-17.063-2.333-30.068-7-38.78s-13.129-13.129-25.526-13.129a228.7,228.7,0,0,0-23.193.98c-3.437.484-6.379.856-8.836.98v99.772H159.8a32.407,32.407,0,0,0,13.129-2.581,25.552,25.552,0,0,0,10.312-8.339,44.153,44.153,0,0,0,6.627-15.338c1.6-6.379,2.333-14.234,2.333-23.566" transform="translate(1117.527 124.694)" fill="#d50053"/>
          <path id="Path_29" data-name="Path 29" d="M110.061,250.434V11.116h112.17V36.034h-82.35v78.3h73.886v24.906H139.881V225.4h82.35v24.906H110.061Z" transform="translate(1255.745 126.83)" fill="#d50053"/>
          <path id="Path_30" data-name="Path 30" d="M231.529,184.8c0,14.11-1.6,25.775-4.79,34.858s-7.731,16.318-13.613,21.468a49.105,49.105,0,0,1-21.357,10.92,114.768,114.768,0,0,1-27.859,3.078,178.855,178.855,0,0,1-19.52-1.353,153.7,153.7,0,0,1-20.116-3.81V225.06a171.381,171.381,0,0,0,18.4,3.562,182.922,182.922,0,0,0,24.67,1.464c11.777,0,20.488-3.437,25.775-10.312,5.4-6.862,7.967-17.423,7.967-31.781a109.367,109.367,0,0,0-1.712-20.736,38.313,38.313,0,0,0-5.15-13.75,21.729,21.729,0,0,0-8.724-7.979,48.676,48.676,0,0,0-12.149-4.046,110.94,110.94,0,0,1-24.3-7.855,45.409,45.409,0,0,1-16.07-12.273,49.586,49.586,0,0,1-9.084-18.4c-1.961-7.247-2.941-15.959-2.941-26.023,0-12.273,1.588-22.585,4.9-30.924a52.07,52.07,0,0,1,14-20.376A54.171,54.171,0,0,1,161.2,14.334a103.6,103.6,0,0,1,27-3.425A115.942,115.942,0,0,1,206.859,12.5a152.918,152.918,0,0,1,17.671,3.562V40.977c-5.882-1.353-12.509-2.581-19.88-3.562a149.062,149.062,0,0,0-19.88-1.477,39.376,39.376,0,0,0-12.521,2.085,27.771,27.771,0,0,0-10.548,6.5,31.9,31.9,0,0,0-7.483,11.417q-2.96,7-2.954,17.3a135.842,135.842,0,0,0,.98,17.311c.745,4.666,1.973,8.463,3.934,11.417a20.99,20.99,0,0,0,7.979,6.987,53.325,53.325,0,0,0,13.377,4.294,103.183,103.183,0,0,1,22.213,6.875,47.664,47.664,0,0,1,16.927,12.521c4.666,5.4,8.227,12.273,10.809,20.736,2.445,8.476,3.8,18.9,3.8,31.421Z" transform="translate(1380.094 124.466)" fill="#d50053"/>
        </g>
      </g>
    </g>
  </g>
</svg>
