<svg xmlns="http://www.w3.org/2000/svg" xmlns:xlink="http://www.w3.org/1999/xlink" width="1920" height="557" viewBox="0 0 1920 557">
  <defs>
    <clipPath id="clip-path">
      <rect id="Rectangle_1" data-name="Rectangle 1" width="1855.727" height="335.725" fill="rgba(0,0,0,0)"/>
    </clipPath>
    <clipPath id="clip-Web_1920_1">
      <rect width="1920" height="557"/>
    </clipPath>
  </defs>
  <g id="Web_1920_1" data-name="Web 1920 – 1" clip-path="url(#clip-Web_1920_1)">
    <g id="Group_2" data-name="Group 2" transform="translate(28 80)">
      <g id="Group_1" data-name="Group 1" transform="translate(0 0)" clip-path="url(#clip-path)">
        <path id="Path_1" data-name="Path 1" d="M299.484,27.91,279.863,235.079H164.94L145.318,27.91H299.484M309.677,6.76H135.126c-7.008,0-12.486,6.371-11.849,13.76l21.277,224.5c.637,6.37,5.733,11.34,11.849,11.34H288.527c6.116,0,11.212-4.842,11.849-11.34l21.277-224.5c.637-7.39-4.842-13.76-11.849-13.76Z" transform="translate(1446.797 79.369)"/>
        <path id="Path_2" data-name="Path 2" d="M217.886,172.993a86.257,86.257,0,1,1,86.257-86.257,86.4,86.4,0,0,1-86.257,86.257" transform="translate(1545.468 5.636)" fill="#d50053"/>
        <path id="Path_3" data-name="Path 3" d="M223.522,12.231a80.141,80.141,0,1,1-80.141,80.141,80.2,80.2,0,0,1,80.141-80.141m0-12.231a92.372,92.372,0,1,0,92.372,92.372A92.439,92.439,0,0,0,223.522,0" transform="translate(1539.833 0)" fill="#fff"/>
        <path id="Path_4" data-name="Path 4" d="M197.457,2.22A64.087,64.087,0,1,1,133.37,66.307,64.087,64.087,0,0,1,197.457,2.22" transform="translate(1565.898 26.065)" fill="#e3558c"/>
        <path id="Path_5" data-name="Path 5" d="M197.457,2.22a64.087,64.087,0,1,0,64.087,64.087A64.054,64.054,0,0,0,197.457,2.22m3.313,56.315V12.285a54.132,54.132,0,0,1,32.617,13.505L200.77,58.408Zm-6.5,0L161.655,25.918a54.132,54.132,0,0,1,32.617-13.505V58.535Zm0,15.544V120.2A54.132,54.132,0,0,1,161.655,106.7l32.617-32.617m6.5,0L233.387,106.7A54.132,54.132,0,0,1,200.77,120.2V74.079Zm50.709-10.957h-46.25l32.617-32.617a53.382,53.382,0,0,1,13.505,32.617ZM157.068,30.378l32.617,32.617h-46.25a54.131,54.131,0,0,1,13.505-32.617ZM143.563,69.493h46.25L157.2,102.109A54.133,54.133,0,0,1,143.69,69.493Zm94.411,32.744L205.229,69.62h46.25a54.131,54.131,0,0,1-13.505,32.617" transform="translate(1565.898 26.065)" fill="#fff"/>
        <path id="Path_6" data-name="Path 6" d="M84.549,33.575V252.7H54.06V33.575H0V6.857H138.609V33.575Z" transform="translate(-0.001 80.513)" fill="#1d1d1b"/>
        <path id="Path_7" data-name="Path 7" d="M158.649,129.277q0,32.318-3.4,56.315c-2.268,16-6.052,29.355-11.594,40.07-5.542,10.588-12.983,18.653-22.437,23.813s-21.418,7.938-36.032,7.938-26.463-2.65-36.032-7.938c-9.454-5.288-17.009-13.225-22.437-23.813-5.542-10.715-9.326-23.94-11.594-40.07-2.268-16-3.274-34.77-3.274-56.315s1.134-38.567,3.274-53.933c2.268-15.378,6.052-28.107,11.594-38.312S39.7,19.271,49.153,14.225,70.57,6.67,85.184,6.67s26.463,2.523,36.032,7.555a53.071,53.071,0,0,1,22.437,22.806c5.415,10.206,9.326,22.934,11.594,38.312s3.4,33.267,3.4,53.933M127.4,131.035A455,455,0,0,0,125.255,82.9c-1.389-12.728-3.784-22.679-7.059-30.234-3.274-7.441-7.555-12.728-12.983-15.748s-12.091-4.536-20.029-4.536-14.614,1.5-20.029,4.536-9.709,8.307-12.983,15.748S46.5,70.171,45.114,82.9a455,455,0,0,0-2.141,48.135,446.044,446.044,0,0,0,2.141,47.626c1.389,12.856,3.784,23.061,7.059,31.126,3.274,7.938,7.555,13.607,12.983,17.009s12.091,5.045,20.029,5.045S99.8,230.2,105.213,226.8s9.709-9.072,12.983-17.009,5.67-18.271,7.059-31.126a451.173,451.173,0,0,0,2.141-47.626" transform="translate(139.096 78.312)" fill="#1d1d1b"/>
        <path id="Path_8" data-name="Path 8" d="M108.272,252.577,54.594,32.833V252.577H26.118V6.867H76.012l54.06,219.757V6.867h28.476v245.71H108.272Z" transform="translate(306.653 80.628)" fill="#1d1d1b"/>
        <path id="Path_9" data-name="Path 9" d="M39.123,252.46V226.876H63.688V32.461H39.123V6.877h79.631V32.461H94.19V226.876h24.565V252.46Z" transform="translate(459.342 80.745)" fill="#1d1d1b"/>
        <path id="Path_10" data-name="Path 10" d="M157.1,251.138c-1.886.51-4.408,1.007-7.683,1.758s-6.676,1.389-10.333,1.9c-3.657.624-7.313,1.134-11.085,1.631a75.038,75.038,0,0,1-9.836.764c-12.6,0-23.431-1.771-32.26-5.428-8.944-3.644-16.245-10.206-21.914-19.774s-9.963-22.806-12.6-39.446-4.039-38.172-4.039-64.38,1.516-46.874,4.536-62.622,7.7-28.107,13.862-36.923S79.739,14,89.065,11.1,109.6,6.689,122.446,6.689a103.14,103.14,0,0,1,18.029,1.644c6.422,1.007,11.964,2.14,16.627,3.274V37.56a157.3,157.3,0,0,0-19.787-3.274,210.345,210.345,0,0,0-21.29-1.261A40.361,40.361,0,0,0,99.4,36.3c-4.791,2.153-8.7,6.8-11.722,13.735s-5.288,16.767-6.8,29.5S78.6,109.254,78.6,130.557s.879,39.561,2.523,52.786,4.026,23.316,7.173,30.375,7.059,11.594,11.722,13.862,10.206,3.274,16.512,3.274a153.447,153.447,0,0,0,22.424-1.771,182.844,182.844,0,0,0,18.271-3.529v25.584Z" transform="translate(555.948 78.535)" fill="#1d1d1b"/>
        <path id="Path_11" data-name="Path 11" d="M143,33.575V252.7H112.507V33.575H58.447V6.857H197.056V33.575Z" transform="translate(686.224 80.513)" fill="#d50053"/>
        <path id="Path_12" data-name="Path 12" d="M164.785,138.545V252.577H133.162V138.545L70.285,6.867h33.636l46.377,102.2,46.365-102.2h32.005L164.785,138.545" transform="translate(825.214 80.628)" fill="#d50053"/>
        <path id="Path_13" data-name="Path 13" d="M212.4,82.782a149.806,149.806,0,0,1-3.657,34.9c-2.523,9.963-6.434,18.156-11.722,24.7a49.053,49.053,0,0,1-21.035,14.741c-8.7,3.274-19.162,4.918-31.636,4.918H114.866v92.729H84.377V9.075c5.8-.51,12.091-.879,18.653-1.389,5.67-.51,11.964-.752,19.15-.879,7.173,0,14.359-.127,21.545-.127,13.353,0,24.437,1.886,33.394,5.8s15.99,9.2,21.29,16.13A62.668,62.668,0,0,1,209.494,52.79a132.845,132.845,0,0,1,3.147,29.992Zm-31.254,2.4c0-17.519-2.4-30.871-7.186-39.816s-13.48-13.48-26.208-13.48a234.814,234.814,0,0,0-23.813,1.007c-3.529.5-6.549.879-9.072,1.007V136.332h33.012a33.272,33.272,0,0,0,13.48-2.65,26.233,26.233,0,0,0,10.588-8.562,45.332,45.332,0,0,0,6.8-15.748c1.644-6.549,2.4-14.614,2.4-24.2" transform="translate(990.671 78.43)" fill="#d50053"/>
        <path id="Path_14" data-name="Path 14" d="M96.492,252.577V6.867H211.658V32.451H127.109v80.4h75.86v25.571h-75.86v88.461h84.549V252.45H96.492Z" transform="translate(1132.912 80.628)" fill="#d50053"/>
        <path id="Path_15" data-name="Path 15" d="M220.913,185.2c0,14.487-1.644,26.463-4.918,35.789s-7.938,16.754-13.977,22.042a50.419,50.419,0,0,1-21.927,11.212,117.833,117.833,0,0,1-28.6,3.16,183.64,183.64,0,0,1-20.042-1.389,157.8,157.8,0,0,1-20.653-3.912V226.532a175.953,175.953,0,0,0,18.895,3.657,187.81,187.81,0,0,0,25.329,1.5c12.091,0,21.035-3.529,26.463-10.575,5.542-7.059,8.18-17.9,8.18-32.642a112.274,112.274,0,0,0-1.758-21.29,39.338,39.338,0,0,0-5.287-14.117,22.311,22.311,0,0,0-8.957-8.192,49.974,49.974,0,0,0-12.474-4.154,113.908,113.908,0,0,1-24.947-8.065,46.621,46.621,0,0,1-16.5-12.6,50.91,50.91,0,0,1-9.327-18.895c-2.013-7.441-3.02-16.385-3.02-26.718,0-12.6,1.631-23.189,5.033-31.751A53.462,53.462,0,0,1,126.8,21.771,55.617,55.617,0,0,1,148.71,10.177,106.365,106.365,0,0,1,176.434,6.66a119.039,119.039,0,0,1,19.15,1.631,157.005,157.005,0,0,1,18.143,3.657V37.531c-6.039-1.389-12.843-2.65-20.411-3.657a153.046,153.046,0,0,0-20.411-1.516A40.427,40.427,0,0,0,160.05,34.5a28.511,28.511,0,0,0-10.83,6.676A32.758,32.758,0,0,0,141.537,52.9Q138.5,60.083,138.5,70.658a139.452,139.452,0,0,0,1.007,17.774c.764,4.791,2.026,8.689,4.039,11.722a21.55,21.55,0,0,0,8.193,7.173,54.752,54.752,0,0,0,13.735,4.408,105.939,105.939,0,0,1,22.806,7.059,48.937,48.937,0,0,1,17.379,12.856c4.791,5.542,8.447,12.6,11.1,21.29,2.51,8.7,3.9,19.4,3.9,32.26Z" transform="translate(1260.878 78.195)" fill="#d50053"/>
      </g>
    </g>
  </g>
</svg>
