<?xml version="1.0" encoding="UTF-8"?>
<svg id="Layer_1" xmlns="http://www.w3.org/2000/svg" version="1.1" xmlns:xlink="http://www.w3.org/1999/xlink" viewBox="0 0 1920 557">
  <!-- Generator: Adobe Illustrator 30.3.0, SVG Export Plug-In . SVG Version: 2.1.3 Build 182)  -->
  <defs>
    <style>
      .st0 {
        fill: #e3558c;
      }

      .st1 {
        fill: #fff;
      }

      .st2 {
        fill: none;
      }

      .st3 {
        clip-path: url(#clippath-1);
      }

      .st4 {
        fill: #d50053;
      }

      .st5 {
        clip-path: url(#clippath);
      }
    </style>
    <clipPath id="clippath">
      <rect class="st2" x="-219.5" y="-53.1" width="2268.4" height="658.1"/>
    </clipPath>
    <clipPath id="clippath-1">
      <rect class="st2" x="-75.4" y="21.3" width="1981.1" height="491.2"/>
    </clipPath>
  </defs>
  <g class="st5">
    <g id="Web_1920_4">
      <g id="Group_9">
        <g class="st3">
          <g id="Group_8">
            <path id="Path_59" class="st1" d="M773.8,454c0-5.6-.8-9.8-2.3-12.6s-4.3-4.3-8.3-4.3c-2.5,0-5.1,0-7.6.3-1.1.1-2.1.2-2.9.3v32.5h10.5c1.5,0,2.9-.3,4.3-.8,1.3-.6,2.5-1.5,3.3-2.7,1-1.5,1.8-3.2,2.2-5,.6-2.5.8-5.1.8-7.7M783.7,453.2c0,3.7-.3,7.4-1.2,11.1-.6,2.9-1.9,5.6-3.7,7.9-1.8,2.1-4.1,3.7-6.7,4.7-3.2,1.1-6.6,1.6-10,1.6h-9.4v29.4h-9.7v-77.9c1.9-.2,3.8-.3,5.9-.5,1.8-.1,3.8-.2,6.1-.3,2.3,0,4.5,0,6.8,0,3.6-.1,7.2.5,10.6,1.8,2.6,1.1,5,2.9,6.7,5.1,1.7,2.3,2.9,4.9,3.5,7.7.7,3.1,1,6.3,1,9.5"/>
            <path id="Path_60" class="st1" d="M839.2,451.7c.2,4.9-.7,9.8-2.6,14.3-1.7,3.7-4.8,6.5-8.6,7.9l15.3,33.9h-10.7l-14.2-32.3h-9.9v32.3h-9.7v-77.9c1.9-.2,3.8-.3,5.9-.5,1.8-.1,3.8-.2,6.1-.3,2.3,0,4.5,0,6.9,0,3.6-.1,7.1.4,10.5,1.6,2.6.9,4.9,2.5,6.6,4.6,1.7,2.1,2.9,4.5,3.5,7.2.7,3,1,6.2,1,9.3M829.2,452.5c0-5.4-.7-9.4-2.2-11.8-1.5-2.5-4.2-3.7-8.1-3.7-2.5,0-5.1,0-7.6.3-1.1.1-2.1.2-2.9.3v29.6h10.5c1.4,0,2.9-.2,4.2-.6,1.3-.4,2.4-1.2,3.3-2.2,1-1.3,1.8-2.9,2.1-4.5.5-2.4.8-4.9.7-7.4"/>
            <path id="Path_61" class="st1" d="M889.4,468.4c0-5.1-.2-10.2-.7-15.2-.3-3.3-1-6.5-2.2-9.6-.8-2.1-2.2-3.8-4.1-5-4-2-8.7-2-12.7,0-1.9,1.2-3.3,2.9-4.1,5-1.2,3.1-2,6.3-2.2,9.6-.9,10.1-.9,20.2,0,30.3.3,3.4,1,6.7,2.2,9.8.8,2.2,2.2,4.1,4.1,5.4,4,2.2,8.7,2.2,12.7,0,1.9-1.3,3.3-3.2,4.1-5.4,1.2-3.2,1.9-6.5,2.2-9.8.5-5,.7-10.1.7-15.1M899.3,467.9c0,6-.3,11.9-1.1,17.9-.5,4.4-1.7,8.7-3.7,12.7-1.6,3.2-4,5.8-7.1,7.6-7.2,3.3-15.6,3.3-22.8,0-3.1-1.7-5.6-4.4-7.1-7.6-1.9-4-3.2-8.3-3.7-12.7-.8-5.9-1.1-11.9-1.1-17.9,0-5.7.3-11.4,1.1-17.1.5-4.2,1.8-8.3,3.7-12.1,1.6-3.1,4.1-5.6,7.1-7.2,7.3-3.2,15.5-3.2,22.8,0,3,1.6,5.5,4.2,7.1,7.2,1.9,3.8,3.2,7.9,3.7,12.1.8,5.7,1.1,11.4,1.1,17.1"/>
            <path id="Path_62" class="st1" d="M925.7,438v26.6h24v8.2h-24v35.1h-9.7v-77.9h36.5v8.1h-26.8Z"/>
            <path id="Path_63" class="st1" d="M967,507.8v-77.9h36.5v8.1h-26.8v25.5h24v8.2h-24v28h26.8v8.2h-36.5Z"/>
            <path id="Path_64" class="st1" d="M1052.6,485.6c.1,3.9-.4,7.7-1.6,11.4-1.6,5.3-6,9.4-11.4,10.6-3,.7-6,1-9.1,1-2.1,0-4.2-.2-6.3-.4-2.2-.3-4.4-.7-6.6-1.2v-8.1c4.6,1.1,9.3,1.7,14,1.7,3.9,0,6.7-1.1,8.4-3.3,1.7-2.2,2.6-5.7,2.6-10.4,0-2.3-.2-4.5-.6-6.7-.3-1.6-.8-3.1-1.7-4.5-.7-1.1-1.7-2-2.8-2.6-1.3-.6-2.6-1.1-4-1.3-2.7-.5-5.4-1.4-7.9-2.6-2-.9-3.8-2.3-5.2-4-1.4-1.8-2.4-3.8-3-6-.7-2.8-1-5.6-.9-8.5,0-3.4.5-6.8,1.6-10.1,1-2.5,2.5-4.8,4.6-6.6,2-1.7,4.4-3,7-3.7,2.9-.8,5.8-1.1,8.8-1.1,2,0,4.1.2,6.1.5,1.9.3,3.8.7,5.7,1.2v8.1c-1.9-.4-4.1-.8-6.5-1.2-2.1-.3-4.3-.5-6.5-.5-1.4,0-2.8.2-4.1.7-1.3.4-2.5,1.2-3.5,2.1-1.1,1.1-1.9,2.3-2.4,3.7-.7,1.8-1,3.7-.9,5.6,0,1.9,0,3.8.3,5.6.2,1.3.6,2.6,1.3,3.7.7,1,1.6,1.8,2.6,2.3,1.4.6,2.8,1.1,4.3,1.4,2.5.5,4.9,1.2,7.2,2.2,2.1.9,4,2.3,5.5,4.1,1.6,2,2.8,4.3,3.5,6.7.9,3.3,1.3,6.8,1.2,10.2"/>
            <path id="Path_65" class="st1" d="M1099.2,485.6c.1,3.9-.4,7.7-1.6,11.4-1.6,5.3-6,9.4-11.4,10.6-3,.7-6,1-9.1,1-2.1,0-4.2-.2-6.3-.4-2.2-.3-4.4-.7-6.6-1.2v-8.1c4.6,1.1,9.3,1.7,14,1.7,3.9,0,6.7-1.1,8.4-3.3,1.7-2.2,2.6-5.7,2.6-10.4,0-2.3-.2-4.5-.6-6.7-.3-1.6-.8-3.1-1.7-4.5-.7-1.1-1.7-2-2.8-2.6-1.3-.6-2.6-1.1-4-1.3-2.7-.5-5.4-1.4-7.9-2.6-2-.9-3.8-2.3-5.2-4-1.4-1.8-2.4-3.8-3-6-.7-2.8-1-5.6-.9-8.5,0-3.4.5-6.8,1.6-10.1,1-2.5,2.5-4.8,4.6-6.6,2-1.7,4.4-3,7-3.7,2.9-.8,5.8-1.1,8.8-1.1,2,0,4.1.2,6.1.5,1.9.3,3.8.7,5.7,1.2v8.1c-1.9-.4-4.1-.8-6.5-1.2-2.1-.3-4.3-.5-6.5-.5-1.4,0-2.8.2-4.1.7-1.3.4-2.5,1.2-3.5,2.1-1.1,1.1-1.9,2.3-2.4,3.7-.7,1.8-1,3.7-.9,5.6,0,1.9,0,3.8.3,5.6.2,1.3.6,2.6,1.3,3.7.7,1,1.6,1.8,2.6,2.3,1.4.6,2.8,1.1,4.3,1.4,2.5.5,4.9,1.2,7.2,2.2,2.1.9,4,2.3,5.5,4.1,1.6,2,2.8,4.3,3.5,6.7.9,3.3,1.3,6.8,1.2,10.2"/>
            <path id="Path_66" class="st1" d="M1110.1,507.8v-8.2h7.8v-61.6h-7.8v-8.1h25.3v8.1h-7.8v61.6h7.8v8.2h-25.3Z"/>
            <path id="Path_67" class="st1" d="M1184.2,468.4c0-5.1-.2-10.2-.7-15.2-.3-3.3-1-6.5-2.2-9.6-.8-2.1-2.2-3.8-4.1-5-4-2-8.7-2-12.7,0-1.9,1.2-3.3,2.9-4.1,5-1.2,3.1-2,6.3-2.2,9.6-.9,10.1-.9,20.2,0,30.3.3,3.4,1,6.7,2.2,9.8.8,2.2,2.2,4.1,4.1,5.4,4,2.2,8.7,2.2,12.7,0,1.9-1.3,3.3-3.2,4.1-5.4,1.2-3.2,1.9-6.5,2.2-9.8.5-5,.7-10.1.7-15.1M1194.2,467.9c0,6-.3,11.9-1.1,17.9-.5,4.4-1.7,8.7-3.7,12.7-1.6,3.2-4,5.8-7.1,7.6-7.2,3.3-15.6,3.3-22.8,0-3.1-1.7-5.6-4.4-7.1-7.6-1.9-4-3.2-8.3-3.7-12.7-.8-5.9-1.1-11.9-1.1-17.9,0-5.7.3-11.4,1.1-17.1.5-4.2,1.8-8.3,3.7-12.1,1.6-3.1,4.1-5.6,7.1-7.2,7.3-3.2,15.5-3.2,22.8,0,3,1.6,5.5,4.2,7.1,7.2,1.9,3.8,3.2,7.9,3.7,12.1.8,5.7,1.1,11.4,1.1,17.1"/>
            <path id="Path_68" class="st1" d="M1236.9,507.8l-17-69.7v69.7h-9v-77.9h15.8l17.1,69.7v-69.7h9v77.9h-15.9Z"/>
            <path id="Path_69" class="st1" d="M1290.1,437.1l-9,42.5h18.1l-9.1-42.5ZM1305.3,507.7l-4.2-19.7h-21.7l-4.3,19.7h-9.9l18.8-77.9h12.8l18.5,77.9h-9.9Z"/>
            <path id="Path_70" class="st1" d="M1327.4,507.8v-77.9h9.7v69.5h24.8v8.5h-34.5Z"/>
            <path id="Path_81" class="st4" d="M1745,293.3c-17.3,0-39.3,18.3-56.7,18.3s-37.5-18.3-54.8-18.3-37.5,18.3-54.8,18.3-37.5-18.3-54.8-18.3h-24.4l19.2,202.6c.9,9.3,8.4,16.4,17.2,16.4h193.3c9.1-.1,16.6-7.3,17.2-16.4l19.2-202.6h-20.5Z"/>
            <path id="Path_82" d="M1745.4,178.3l-28.7,303.1h-168.2l-28.7-303.1h225.6ZM1760.3,147.3h-255.4c-10.3,0-18.3,9.3-17.3,20.1l31.1,328.5c.9,9.3,8.4,16.6,17.3,16.6h193.3c8.9,0,16.4-7.1,17.3-16.6l31.1-328.5c.9-10.8-7.1-20.1-17.3-20.1h-.2Z"/>
            <path id="Path_83" class="st4" d="M1770.6,282.7c-69.7,0-126.2-56.5-126.2-126.2,0-69.7,56.5-126.2,126.2-126.2,69.7,0,126.2,56.5,126.2,126.2-.1,69.7-56.6,126.1-126.2,126.2"/>
            <path id="Path_84" class="st1" d="M1770.6,39.2c64.8,0,117.3,52.5,117.3,117.3s-52.5,117.3-117.3,117.3-117.3-52.5-117.3-117.3c0-64.7,52.5-117.2,117.3-117.3M1770.6,21.3c-74.6,0-135.2,60.5-135.2,135.2s60.5,135.2,135.2,135.2,135.2-60.5,135.2-135.2c0-74.6-60.5-135.1-135.2-135.2"/>
            <path id="Path_85" class="st0" d="M1770.6,62.7c51.8,0,93.8,42,93.8,93.8,0,51.8-42,93.8-93.8,93.8-51.8,0-93.8-42-93.8-93.8h0c0-51.8,42-93.8,93.8-93.8"/>
            <path id="Path_86" class="st1" d="M1770.6,62.7c-51.8,0-93.8,42-93.8,93.8s42,93.8,93.8,93.8c51.8,0,93.8-42,93.8-93.8,0-51.8-41.9-93.7-93.7-93.8,0,0,0,0,0,0M1775.2,145.1v-67.7c17.7,1.1,34.5,8,47.7,19.8l-47.7,47.7v.2ZM1765.7,145.1l-47.7-47.7c13.3-11.7,30.1-18.7,47.7-19.8v67.5h0ZM1765.7,167.8v67.5c-17.7-1.1-34.5-8-47.7-19.8l47.7-47.7ZM1775.2,167.8l47.7,47.7c-13.3,11.7-30.1,18.7-47.7,19.8v-67.5ZM1849.6,151.8h-67.7l47.7-47.7c11.8,13.2,18.8,30,19.8,47.7h.2ZM1711.3,103.9l47.7,47.7h-67.7c1.1-17.7,8-34.5,19.8-47.7h.2ZM1691.5,161.1h67.7l-47.7,47.7c-11.7-13.3-18.7-30.1-19.8-47.7h-.2ZM1829.7,209l-47.9-47.7h67.7c-1.1,17.7-8,34.5-19.8,47.7"/>
            <g>
              <path class="st1" d="M95.1,183.1v198.6h-27.6v-198.6H18.5v-24.2h125.6v24.2h-49Z"/>
              <path class="st1" d="M288.3,267.9c0,19.5-1.1,36.5-3,51-2.1,14.5-5.5,26.5-10.5,36.3-5,9.6-11.8,16.8-20.3,21.6-8.5,4.8-19.4,7.3-32.6,7.3s-24-2.5-32.6-7.3c-8.5-4.8-15.4-12-20.3-21.6-5-9.7-8.4-21.8-10.5-36.3-2.1-14.5-2.9-31.5-2.9-51s1.1-35,2.9-48.9c2.1-13.9,5.5-25.5,10.5-34.7,5-9.2,11.8-16.1,20.3-20.7s19.4-6.9,32.6-6.9,24,2.3,32.6,6.9c8.7,4.6,15.4,11.5,20.3,20.7,4.9,9.2,8.4,20.8,10.5,34.7,2.1,13.9,3,30.2,3,48.9ZM260,269.5c0-17.5-.7-32-2-43.6-1.3-11.6-3.4-20.6-6.4-27.4-2.9-6.8-6.9-11.6-11.8-14.3s-11-4.1-18.1-4.1-13.2,1.4-18.1,4.1-8.8,7.5-11.8,14.3c-2.9,6.8-5.1,15.9-6.4,27.4-1.3,11.5-2,26.1-2,43.6s.7,31.5,2,43.2c1.3,11.7,3.4,20.9,6.4,28.2,2.9,7.3,6.9,12.3,11.8,15.4,4.9,3,11,4.6,18.1,4.6s13.2-1.5,18.1-4.6,8.8-8.2,11.8-15.4c2.9-7.3,5.1-16.6,6.4-28.2,1.3-11.7,2-26,2-43.2Z"/>
              <path class="st1" d="M394.5,381.7l-48.6-199.2v199.2h-25.8v-222.7h45.3l49,199.2v-199.2h25.8v222.7h-45.6Z"/>
              <path class="st1" d="M470.2,381.7v-23.2h22.2v-176.2h-22.2v-23.2h72.2v23.2h-22.2v176.2h22.2v23.2h-72.2Z"/>
              <path class="st1" d="M664.6,378.5c-1.8.5-4,.9-7,1.6-2.9.7-6.1,1.3-9.4,1.8-3.3.6-6.7,1.1-10.1,1.5-3.4.5-6.4.7-8.9.7-11.5,0-21.3-1.6-29.2-4.9-8.1-3.3-14.7-9.2-19.9-17.9-5.1-8.7-9-20.7-11.5-35.8-2.5-15.1-3.6-34.6-3.6-58.4s1.4-42.5,4.1-56.7c2.7-14.3,7-25.5,12.5-33.4,5.6-8,12.6-13.2,21.2-15.9,8.4-2.6,18.6-4,30.3-4s10.5.5,16.4,1.5c5.8.9,10.9,2,15.1,2.9v23.5c-5.3-1.3-11.3-2.3-17.9-2.9s-13.1-1.2-19.3-1.2-10.8,1.1-15.1,2.9-7.8,6.2-10.6,12.4-4.8,15.2-6.2,26.7c-1.4,11.6-2.1,26.9-2.1,46.2s.8,35.9,2.3,47.8c1.5,12,3.6,21.2,6.5,27.5s6.4,10.5,10.6,12.5c4.2,2.1,9.2,2.9,15,2.9s13.3-.6,20.3-1.6c7-1.1,12.5-2.2,16.6-3.2v23.2h0l-.2.2Z"/>
              <path class="st1" d="M769.9,183.1v198.6h-27.6v-198.6h-49v-24.2h125.6v24.2h-49Z"/>
              <path class="st1" d="M915.6,278.4v103.4h-28.7v-103.4l-57-119.3h30.5l42,92.6,42-92.6h29l-57.9,119.3Z"/>
              <path class="st1" d="M1108.7,225.9c0,12-1.2,22.6-3.3,31.6-2.3,9-5.8,16.5-10.6,22.3-4.9,6-11.2,10.4-19.1,13.3-7.8,2.9-17.3,4.4-28.7,4.4h-26.7v84.1h-27.6v-222.7c5.3-.5,11-.8,16.8-1.3,5.1-.5,10.9-.7,17.3-.8h19.5c12,0,22.1,1.8,30.3,5.3,8.1,3.5,14.5,8.3,19.3,14.6,4.8,6.3,8.1,13.6,10.1,21.9,2,8.3,2.8,17.4,2.8,27.1h-.2ZM1080.4,228c0-15.9-2.2-27.9-6.5-36.1-4.3-8.2-12.2-12.2-23.7-12.2s-16.1.4-21.6.9c-3.2.5-6,.8-8.2.9v92.9h29.9c4.4,0,8.5-.8,12.2-2.5,3.7-1.6,6.9-4.2,9.6-7.7,2.6-3.6,4.7-8.3,6.2-14.3,1.5-6,2.2-13.2,2.2-21.9h0Z"/>
              <path class="st1" d="M1132.5,381.7v-222.7h104.3v23.2h-76.6v72.9h68.8v23.2h-68.8v80.1h76.6v23.2h-104.3v.2Z"/>
              <path class="st1" d="M1361.3,318.4c0,13.1-1.5,24-4.4,32.4-2.9,8.4-7.3,15.2-12.6,20-5.5,4.9-12,8.2-19.9,10.2-7.7,2-16.5,2.8-26,2.8s-11.1-.5-18.1-1.3c-7-.9-13.2-2.1-18.7-3.5v-23.2c4.9,1.3,10.6,2.5,17.1,3.3,6.7.9,14.3,1.4,22.9,1.4s19.1-3.2,24-9.6c5-6.4,7.4-16.3,7.4-29.6s-.6-14-1.6-19.3-2.6-9.5-4.8-12.7c-2.2-3.3-4.8-5.8-8.1-7.4s-7.1-2.9-11.3-3.7c-8.9-2-16.5-4.3-22.6-7.3s-11.2-6.8-15-11.5c-3.7-4.7-6.7-10.4-8.4-17.1-1.9-6.8-2.7-14.9-2.7-24.2s1.5-21,4.6-28.8c3-7.7,7.4-14,13-18.9,5.6-4.9,12.2-8.3,19.9-10.5,7.6-2.1,16-3.2,25.1-3.2s11.1.5,17.3,1.5c6.3.9,11.8,2.1,16.5,3.3v23.2c-5.5-1.3-11.7-2.5-18.5-3.3-6.8-.9-12.9-1.4-18.5-1.4s-7.8.7-11.7,2c-3.7,1.3-7,3.3-9.8,6.1-2.8,2.7-5.3,6.3-7,10.6-1.9,4.3-2.7,9.7-2.7,16.1s.4,11.8.9,16.1c.7,4.3,1.9,7.8,3.6,10.6,1.9,2.7,4.3,4.9,7.4,6.5,3.2,1.6,7.3,2.9,12.4,4,7.6,1.5,14.5,3.6,20.7,6.4,6.2,2.7,11.5,6.7,15.8,11.7s7.6,11.5,10.1,19.3c2.3,7.8,3.5,17.5,3.5,29.2h.2v-.5Z"/>
            </g>
          </g>
        </g>
      </g>
    </g>
  </g>
</svg>