<?xml version="1.0" encoding="UTF-8"?>
<svg id="Ebene_1" xmlns="http://www.w3.org/2000/svg" version="1.1" viewBox="0 0 1980 1080">
  <defs>
    <style>
      .st0 {
        fill: #fff;
        fill-rule: evenodd;
      }

      .st1 {
        fill: #d50053;
      }

      .st2 {
        fill: #131415;
      }
    </style>
  </defs>

  <!-- Badge icon -->
  <g transform="translate(55, 0)">
    <path class="st1" d="M1803.94,452.23c-12.34,0-28.8,13.71-41.14,13.71s-27.43-13.71-39.77-13.71-27.43,13.71-39.77,13.71-27.43-13.71-39.77-13.71h-17.83l13.71,149.49c0,6.86,5.49,12.34,12.34,12.34h139.89c6.86,0,12.34-5.49,12.34-12.34l13.71-149.49c1.37,0-1.37,0-13.71,0Z"/>
    <path class="st2" d="M1723.27,345.26c-.16,2.27-.24,4.55-.24,6.86,0,5.12.4,10.17,1.15,15.09h-84.81l20.57,223.54h123.43l13.09-142.19c7.04,1.99,14.37,3.2,21.92,3.57l-14.45,149.6c0,6.86-5.49,12.34-12.34,12.34h-141.26c-6.86,0-12.34-5.49-12.34-12.34l-23.31-241.37c-1.37-8.23,4.11-15.09,12.34-15.09,0,0,96.24,0,96.24,0Z"/>
    <path class="st1" d="M1823.14,265.71c48,0,86.4,38.4,86.4,86.4s-38.4,86.4-86.4,86.4-86.4-38.4-86.4-86.4,38.4-86.4,86.4-86.4Z"/>
    <path class="st0" d="M1823.14,282.87c38.22,0,69.25,31.03,69.25,69.25s-31.03,69.25-69.25,69.25-69.25-31.03-69.25-69.25,31.03-69.25,69.25-69.25ZM1819.52,412.26c-13.9-.82-26.55-6.36-36.33-15.07l36.33-36.33v51.4ZM1863.1,397.19c-9.78,8.69-22.44,14.24-36.33,15.07v-51.4l36.33,36.33ZM1778.07,392.07c-8.69-9.78-14.24-22.44-15.07-36.33h51.4l-36.33,36.33ZM1883.28,355.73c-.82,13.9-6.36,26.55-15.07,36.33l-36.33-36.33h51.4ZM1778.07,312.16l36.33,36.33h-51.4c.82-13.9,6.36-26.55,15.07-36.33ZM1868.22,312.16c8.69,9.78,14.24,22.44,15.07,36.33h-51.4l36.33-36.33ZM1826.76,291.97c13.9.82,26.55,6.36,36.33,15.07l-36.33,36.33s0-51.4,0-51.4ZM1819.52,291.97v51.4l-36.33-36.33c9.78-8.69,22.44-14.24,36.33-15.07Z"/>
  </g>

  <!-- TONICTYPES wordmark scaled to original logo dimensions -->
  <g transform="translate(-16, 157) scale(1.18)">
    <g class="st2">
      <path d="M95.1,183.1v198.6h-27.6v-198.6H18.5v-24.2h125.6v24.2h-49Z"/>
      <path d="M288.3,267.9c0,19.5-1.1,36.5-3,51-2.1,14.5-5.5,26.5-10.5,36.3-5,9.6-11.8,16.8-20.3,21.6-8.5,4.8-19.4,7.3-32.6,7.3s-24-2.5-32.6-7.3c-8.5-4.8-15.4-12-20.3-21.6-5-9.7-8.4-21.8-10.5-36.3-2.1-14.5-2.9-31.5-2.9-51s1.1-35,2.9-48.9c2.1-13.9,5.5-25.5,10.5-34.7,5-9.2,11.8-16.1,20.3-20.7s19.4-6.9,32.6-6.9,24,2.3,32.6,6.9c8.7,4.6,15.4,11.5,20.3,20.7,4.9,9.2,8.4,20.8,10.5,34.7,2.1,13.9,3,30.2,3,48.9ZM260,269.5c0-17.5-.7-32-2-43.6-1.3-11.6-3.4-20.6-6.4-27.4-2.9-6.8-6.9-11.6-11.8-14.3s-11-4.1-18.1-4.1-13.2,1.4-18.1,4.1-8.8,7.5-11.8,14.3c-2.9,6.8-5.1,15.9-6.4,27.4-1.3,11.5-2,26.1-2,43.6s.7,31.5,2,43.2c1.3,11.7,3.4,20.9,6.4,28.2,2.9,7.3,6.9,12.3,11.8,15.4,4.9,3,11,4.6,18.1,4.6s13.2-1.5,18.1-4.6,8.8-8.2,11.8-15.4c2.9-7.3,5.1-16.6,6.4-28.2,1.3-11.7,2-26,2-43.2Z"/>
      <path d="M394.5,381.7l-48.6-199.2v199.2h-25.8v-222.7h45.3l49,199.2v-199.2h25.8v222.7h-45.6Z"/>
      <path d="M470.2,381.7v-23.2h22.2v-176.2h-22.2v-23.2h72.2v23.2h-22.2v176.2h22.2v23.2h-72.2Z"/>
      <path d="M664.6,378.5c-1.8.5-4,.9-7,1.6-2.9.7-6.1,1.3-9.4,1.8-3.3.6-6.7,1.1-10.1,1.5-3.4.5-6.4.7-8.9.7-11.5,0-21.3-1.6-29.2-4.9-8.1-3.3-14.7-9.2-19.9-17.9-5.1-8.7-9-20.7-11.5-35.8-2.5-15.1-3.6-34.6-3.6-58.4s1.4-42.5,4.1-56.7c2.7-14.3,7-25.5,12.5-33.4,5.6-8,12.6-13.2,21.2-15.9,8.4-2.6,18.6-4,30.3-4s10.5.5,16.4,1.5c5.8.9,10.9,2,15.1,2.9v23.5c-5.3-1.3-11.3-2.3-17.9-2.9s-13.1-1.2-19.3-1.2-10.8,1.1-15.1,2.9-7.8,6.2-10.6,12.4-4.8,15.2-6.2,26.7c-1.4,11.6-2.1,26.9-2.1,46.2s.8,35.9,2.3,47.8c1.5,12,3.6,21.2,6.5,27.5s6.4,10.5,10.6,12.5c4.2,2.1,9.2,2.9,15,2.9s13.3-.6,20.3-1.6c7-1.1,12.5-2.2,16.6-3.2v23.2h0l-.2.2Z"/>
    </g>
    <g class="st1">
      <path d="M769.9,183.1v198.6h-27.6v-198.6h-49v-24.2h125.6v24.2h-49Z"/>
      <path d="M915.6,278.4v103.4h-28.7v-103.4l-57-119.3h30.5l42,92.6,42-92.6h29l-57.9,119.3Z"/>
      <path d="M1108.7,225.9c0,12-1.2,22.6-3.3,31.6-2.3,9-5.8,16.5-10.6,22.3-4.9,6-11.2,10.4-19.1,13.3-7.8,2.9-17.3,4.4-28.7,4.4h-26.7v84.1h-27.6v-222.7c5.3-.5,11-.8,16.8-1.3,5.1-.5,10.9-.7,17.3-.8h19.5c12,0,22.1,1.8,30.3,5.3,8.1,3.5,14.5,8.3,19.3,14.6,4.8,6.3,8.1,13.6,10.1,21.9,2,8.3,2.8,17.4,2.8,27.1h-.2ZM1080.4,228c0-15.9-2.2-27.9-6.5-36.1-4.3-8.2-12.2-12.2-23.7-12.2s-16.1.4-21.6.9c-3.2.5-6,.8-8.2.9v92.9h29.9c4.4,0,8.5-.8,12.2-2.5,3.7-1.6,6.9-4.2,9.6-7.7,2.6-3.6,4.7-8.3,6.2-14.3,1.5-6,2.2-13.2,2.2-21.9h0Z"/>
      <path d="M1132.5,381.7v-222.7h104.3v23.2h-76.6v72.9h68.8v23.2h-68.8v80.1h76.6v23.2h-104.3v.2Z"/>
      <path d="M1361.3,318.4c0,13.1-1.5,24-4.4,32.4-2.9,8.4-7.3,15.2-12.6,20-5.5,4.9-12,8.2-19.9,10.2-7.7,2-16.5,2.8-26,2.8s-11.1-.5-18.1-1.3c-7-.9-13.2-2.1-18.7-3.5v-23.2c4.9,1.3,10.6,2.5,17.1,3.3,6.7.9,14.3,1.4,22.9,1.4s19.1-3.2,24-9.6c5-6.4,7.4-16.3,7.4-29.6s-.6-14-1.6-19.3-2.6-9.5-4.8-12.7c-2.2-3.3-4.8-5.8-8.1-7.4s-7.1-2.9-11.3-3.7c-8.9-2-16.5-4.3-22.6-7.3s-11.2-6.8-15-11.5c-3.7-4.7-6.7-10.4-8.4-17.1-1.9-6.8-2.7-14.9-2.7-24.2s1.5-21,4.6-28.8c3-7.7,7.4-14,13-18.9,5.6-4.9,12.2-8.3,19.9-10.5,7.6-2.1,16-3.2,25.1-3.2s11.1.5,17.3,1.5c6.3.9,11.8,2.1,16.5,3.3v23.2c-5.5-1.3-11.7-2.5-18.5-3.3-6.8-.9-12.9-1.4-18.5-1.4s-7.8.7-11.7,2c-3.7,1.3-7,3.3-9.8,6.1-2.8,2.7-5.3,6.3-7,10.6-1.9,4.3-2.7,9.7-2.7,16.1s.4,11.8.9,16.1c.7,4.3,1.9,7.8,3.6,10.6,1.9,2.7,4.3,4.9,7.4,6.5,3.2,1.6,7.3,2.9,12.4,4,7.6,1.5,14.5,3.6,20.7,6.4,6.2,2.7,11.5,6.7,15.8,11.7s7.6,11.5,10.1,19.3c2.3,7.8,3.5,17.5,3.5,29.2h.2v-.5Z"/>
    </g>
  </g>
</svg>