<?xml version="1.0" encoding="UTF-8" standalone="no"?>
<!DOCTYPE svg PUBLIC "-//W3C//DTD SVG 1.1//EN" "http://www.w3.org/Graphics/SVG/1.1/DTD/svg11.dtd">
<svg width="100%" height="100%" viewBox="0 0 64 64" version="1.1" xmlns="http://www.w3.org/2000/svg" xmlns:xlink="http://www.w3.org/1999/xlink" xml:space="preserve" xmlns:serif="http://www.serif.com/" style="fill-rule:evenodd;clip-rule:evenodd;stroke-linecap:round;stroke-linejoin:round;stroke-miterlimit:1.5;">
    <g transform="matrix(1.08352,0,0,1.03497,-4.64327,-3.68431)">
        <rect x="4.285" y="3.56" width="59.715" height="62.854" style="fill:white;"/>
    </g>
    <g transform="matrix(-0.0478268,0,0,0.0478268,85.7845,-61.0067)">
        <g id="Detail">
            <g>
                <g transform="matrix(1.17701,0,0,1.17701,-228.826,-368.394)">
                    <path d="M1262.3,1533.01C1432.65,1533.01 1570.96,1671.32 1570.96,1841.67C1570.96,2012.03 1432.65,2150.34 1262.3,2150.34C1091.94,2150.34 953.632,2012.03 953.632,1841.67C953.632,1671.32 1091.94,1533.01 1262.3,1533.01ZM1262.3,1658.05C1363.64,1658.05 1445.93,1740.33 1445.93,1841.67C1445.93,1943.02 1363.64,2025.3 1262.3,2025.3C1160.95,2025.3 1078.67,1943.02 1078.67,1841.67C1078.67,1740.33 1160.95,1658.05 1262.3,1658.05Z" style="fill:rgb(235,235,235);"/>
                </g>
                <g transform="matrix(1.17701,0,0,1.17701,-228.826,-368.394)">
                    <path d="M1262.3,1533.01C1432.65,1533.01 1570.96,1671.32 1570.96,1841.67C1570.96,2012.03 1432.65,2150.34 1262.3,2150.34C1091.94,2150.34 953.632,2012.03 953.632,1841.67C953.632,1671.32 1091.94,1533.01 1262.3,1533.01ZM1262.3,1595.7C1398.05,1595.7 1508.27,1705.92 1508.27,1841.67C1508.27,1977.43 1398.05,2087.65 1262.3,2087.65C1126.54,2087.65 1016.32,1977.43 1016.32,1841.67C1016.32,1705.92 1126.54,1595.7 1262.3,1595.7Z" style="fill:rgb(45,92,127);"/>
                </g>
                <g transform="matrix(-13.2815,-13.2815,-20.5836,20.5836,2318.17,1773.47)">
                    <rect x="34.112" y="34.339" width="6.985" height="20.701" style="fill:rgb(59,126,176);"/>
                </g>
                <g transform="matrix(-13.2815,-13.2815,-18.0891,18.0891,2232.51,1859.13)">
                    <rect x="34.112" y="34.339" width="6.985" height="20.701" style="fill:rgb(45,92,127);"/>
                </g>
                <g transform="matrix(1.17701,0,0,1.17701,-228.826,-368.394)">
                    <path d="M1078.67,1841.79C1078.73,1937.51 1152.18,2016.2 1245.75,2024.57L1245.75,2149.9C1083.1,2141.29 953.684,2006.53 953.632,1841.79L1078.67,1841.79Z" style="fill:rgb(59,126,176);stroke:rgb(59,126,176);stroke-width:17.76px;"/>
                </g>
                <g transform="matrix(-1.37716,-1.0387e-18,-1.0387e-18,-1.38564,2970.69,4381.23)">
                    <path d="M1262.3,1533.01L1262.3,1841.79L1262.3,1841.79L1044.02,1623.52C1099.89,1567.61 1177.08,1533.01 1262.3,1533.01L1262.3,1533.01Z" style="fill:rgb(213,0,83);"/>
                </g>
                <g transform="matrix(-1.2122,0,0,1.21682,2762.46,-411.612)">
                    <path d="M1044.81,2060.61C1100.63,2116.07 1177.49,2150.34 1262.3,2150.34L1262.3,2205.3L1262.29,2205.3C1162.59,2205.3 1072.27,2164.56 1006.9,2098.75L1044.81,2060.61Z" style="fill:rgb(227,85,140);"/>
                </g>
                <g transform="matrix(0.880913,-0.23604,0.184308,0.687847,-346.565,903.869)">
                    <path d="M1480.57,1623.51L1519.34,1584.75L1519.34,1584.75C1589.84,1655.25 1624.9,1747.92 1624.59,1840.68L1570.96,1840.84C1570.74,1756.03 1536.23,1679.21 1480.57,1623.51Z" style="fill:rgb(211,211,211);"/>
                </g>
            </g>
        </g>
    </g>
    <path d="M64.702,65.052L64.702,-0L0,0L-0,65.052L64.702,65.052ZM59.925,3.879L3.629,3.879L3.629,60.116L59.925,60.116L59.925,3.879Z" style="fill:rgb(156,156,156);stroke:rgb(98,98,98);stroke-width:1px;"/>
</svg>
