<?xml version="1.0" encoding="UTF-8" standalone="no"?>
<!DOCTYPE svg PUBLIC "-//W3C//DTD SVG 1.1//EN" "http://www.w3.org/Graphics/SVG/1.1/DTD/svg11.dtd">
<svg width="100%" height="100%" viewBox="0 0 64 64" version="1.1" xmlns="http://www.w3.org/2000/svg" xmlns:xlink="http://www.w3.org/1999/xlink" xml:space="preserve" xmlns:serif="http://www.serif.com/" style="fill-rule:evenodd;clip-rule:evenodd;stroke-linecap:round;stroke-linejoin:round;stroke-miterlimit:1.5;">
    <g transform="matrix(1.08352,0,0,1.03497,-4.64327,-3.68431)">
        <rect x="4.285" y="3.56" width="59.715" height="62.854" style="fill:white;"/>
    </g>
    <g id="Dynamic" transform="matrix(0.0755054,0,0,0.0755054,-63.3102,-107.056)">
        <g transform="matrix(12.2852,0,0,12.2852,869.17,1448.55)">
            <path d="M22.673,43.677C24.823,45.397 27.457,46.536 30.338,46.855L30.338,57.071C24.654,56.698 19.483,54.433 15.451,50.899L22.673,43.677ZM41.327,43.677L48.549,50.899C44.516,54.433 39.346,56.699 33.662,57.071L33.662,46.855C36.542,46.536 39.176,45.398 41.327,43.677ZM17.145,33.662C17.464,36.542 18.602,39.176 20.323,41.327L13.101,48.549C9.567,44.516 7.301,39.346 6.929,33.662L17.145,33.662ZM57.071,33.662C56.698,39.346 54.433,44.517 50.899,48.549L43.677,41.327C45.397,39.177 46.536,36.543 46.855,33.662L57.071,33.662ZM13.101,15.451L20.323,22.673C18.603,24.823 17.464,27.457 17.145,30.338L6.929,30.338C7.302,24.654 9.567,19.483 13.101,15.451ZM50.899,15.451C54.433,19.484 56.699,24.654 57.071,30.338L46.855,30.338C46.536,27.458 45.398,24.824 43.677,22.673L50.899,15.451ZM30.338,6.929L30.338,17.145C27.458,17.464 24.824,18.602 22.673,20.323L15.451,13.101C19.484,9.567 24.654,7.301 30.338,6.929ZM33.662,6.929C39.346,7.302 44.517,9.567 48.549,13.101L41.327,20.323C39.177,18.603 36.543,17.464 33.662,17.145L33.662,6.929Z" style="fill:rgb(120,120,120);"/>
        </g>
        <g transform="matrix(12.2852,0,0,12.2852,869.17,1448.55)">
            <path d="M13.101,15.451C9.567,19.483 7.302,24.654 6.929,30.338L17.144,30.338C17.464,27.457 18.603,24.823 20.323,22.673L13.101,15.451ZM30.338,6.929C24.654,7.301 19.484,9.567 15.451,13.101L22.673,20.323C24.822,18.603 27.457,17.464 30.338,17.144L30.338,6.929Z" style="fill:rgb(213,0,83);"/>
        </g>
        <g transform="matrix(12.2852,0,0,12.2852,869.17,1448.55)">
            <path d="M22.673,43.677C24.823,45.397 27.457,46.536 30.338,46.856L30.338,57.071C24.654,56.698 19.483,54.433 15.451,50.899L22.673,43.677ZM17.144,33.662C17.464,36.543 18.603,39.178 20.323,41.327L13.101,48.549C9.567,44.516 7.301,39.346 6.929,33.662L17.144,33.662Z" style="fill:rgb(92,162,214);"/>
        </g>
        <g transform="matrix(12.2852,0,0,12.2852,869.17,1448.55)">
            <path d="M41.327,43.677C39.178,45.397 36.543,46.536 33.662,46.856L33.662,57.071C39.346,56.699 44.516,54.433 48.549,50.899L41.327,43.677ZM57.071,33.662L46.856,33.662C46.536,36.543 45.397,39.177 43.677,41.327L50.899,48.549C54.433,44.517 56.698,39.346 57.071,33.662Z" style="fill:rgb(59,126,176);"/>
        </g>
    </g>
    <path d="M64.702,65.052L64.702,-0L0,0L-0,65.052L64.702,65.052ZM59.925,3.879L3.629,3.879L3.629,60.116L59.925,60.116L59.925,3.879Z" style="fill:rgb(156,156,156);stroke:rgb(98,98,98);stroke-width:1px;"/>
</svg>
