<?xml version="1.0" encoding="UTF-8" standalone="no"?>
<!DOCTYPE svg PUBLIC "-//W3C//DTD SVG 1.1//EN" "http://www.w3.org/Graphics/SVG/1.1/DTD/svg11.dtd">
<svg width="100%" height="100%" viewBox="0 0 64 64" version="1.1" xmlns="http://www.w3.org/2000/svg" xmlns:xlink="http://www.w3.org/1999/xlink" xml:space="preserve" xmlns:serif="http://www.serif.com/" style="fill-rule:evenodd;clip-rule:evenodd;stroke-linecap:round;stroke-linejoin:round;stroke-miterlimit:1.5;">
    <g transform="matrix(1.08352,0,0,1.03497,-4.64327,-3.68431)">
        <rect x="4.285" y="3.56" width="59.715" height="62.854" style="fill:white;"/>
    </g>
    <g id="Plain" transform="matrix(1.98437,0,0,1.86699,0.0703218,2.02289)">
        <rect x="4.5" y="4.5" width="9" height="3" style="fill:rgb(213,0,83);"/>
        <rect x="15.5" y="4.5" width="4" height="3" style="fill:rgb(177,177,177);"/>
        <rect x="21.5" y="4.5" width="6" height="3" style="fill:rgb(177,177,177);"/>
        <rect x="4.5" y="9.5" width="13" height="3" style="fill:rgb(177,177,177);"/>
        <rect x="19.5" y="9.5" width="3" height="3" style="fill:rgb(213,0,83);"/>
        <rect x="24.5" y="9.5" width="3" height="3" style="fill:rgb(177,177,177);"/>
        <rect x="20.5" y="14.5" width="7" height="3" style="fill:rgb(177,177,177);"/>
        <rect x="13.5" y="14.5" width="5" height="3" style="fill:rgb(120,120,120);"/>
        <rect x="4.5" y="14.5" width="7" height="3" style="fill:rgb(177,177,177);"/>
        <rect x="4.5" y="19.5" width="10" height="3" style="fill:rgb(92,162,214);"/>
        <rect x="16.5" y="19.5" width="11" height="3" style="fill:rgb(177,177,177);"/>
        <rect x="11.5" y="24.5" width="16" height="3" style="fill:rgb(59,126,176);"/>
        <rect x="4.5" y="24.5" width="5" height="3" style="fill:rgb(177,177,177);"/>
    </g>
    <path d="M64.702,65.052L64.702,-0L0,0L-0,65.052L64.702,65.052ZM59.925,3.879L3.629,3.879L3.629,60.116L59.925,60.116L59.925,3.879Z" style="fill:rgb(156,156,156);stroke:rgb(98,98,98);stroke-width:1px;"/>
</svg>
