<?xml version="1.0" encoding="UTF-8"?>
<svg id="Ebene_1" data-name="Ebene 1" xmlns="http://www.w3.org/2000/svg" viewBox="0 0 36 36">
  <defs>
    <style>
      .cls-1 {
        fill: #fff;
      }

      .cls-2 {
        fill: #e3558c;
      }

      .cls-3 {
        fill: #d50053;
      }
    </style>
  </defs>
  <path class="cls-3" d="M22.91,17.63c-.93,0-2.11.98-3.04.98s-2.01-.98-2.94-.98-2.01.98-2.94.98-2.01-.98-2.94-.98h-1.31l1.03,10.87c.05.5.45.88.92.88h10.37c.48,0,.88-.38.92-.88l1.03-10.87h-1.11Z"/>
  <path d="M22.93,11.46l-1.54,16.26h-9.02l-1.54-16.26h12.1M23.73,9.8h-13.7c-.55,0-.98.5-.93,1.08l1.67,17.62c.05.5.45.89.93.89h10.37c.48,0,.88-.38.93-.89l1.67-17.62c.05-.58-.38-1.08-.93-1.08h0Z"/>
  <g>
    <path class="cls-3" d="M24.28,17.06c-3.73,0-6.77-3.04-6.77-6.77s3.04-6.77,6.77-6.77,6.77,3.04,6.77,6.77-3.04,6.77-6.77,6.77Z"/>
    <path class="cls-1" d="M24.28,4c3.47,0,6.29,2.82,6.29,6.29s-2.82,6.29-6.29,6.29-6.29-2.82-6.29-6.29,2.82-6.29,6.29-6.29M24.28,3.04c-4,0-7.25,3.25-7.25,7.25s3.25,7.25,7.25,7.25,7.25-3.25,7.25-7.25-3.25-7.25-7.25-7.25h0Z"/>
  </g>
  <circle class="cls-2" cx="24.28" cy="10.29" r="5.03"/>
  <path class="cls-1" d="M24.28,5.26c-2.78,0-5.03,2.25-5.03,5.03s2.25,5.03,5.03,5.03,5.03-2.25,5.03-5.03-2.25-5.03-5.03-5.03ZM24.53,9.68v-3.63c.98.06,1.87.45,2.56,1.06l-2.56,2.56ZM24.02,9.68l-2.56-2.56c.69-.61,1.58-1,2.56-1.06v3.63ZM24.02,10.9v3.62c-.98-.06-1.87-.45-2.56-1.06l2.56-2.56ZM24.53,10.9l2.56,2.56c-.69.61-1.58,1-2.56,1.06v-3.63ZM28.52,10.04h-3.63l2.56-2.56c.62.69,1,1.58,1.06,2.56ZM21.1,7.47l2.56,2.56h-3.63c.06-.98.45-1.87,1.06-2.56ZM20.04,10.54h3.63l-2.56,2.56c-.61-.69-1-1.58-1.06-2.56ZM27.45,13.11l-2.57-2.56h3.63c-.06.98-.45,1.87-1.06,2.56Z"/>
</svg>