<?xml version="1.0" encoding="UTF-8" standalone="no"?>
<!DOCTYPE svg PUBLIC "-//W3C//DTD SVG 1.1//EN" "http://www.w3.org/Graphics/SVG/1.1/DTD/svg11.dtd">
<svg width="100%" height="100%" viewBox="0 0 7 7" version="1.1" xmlns="http://www.w3.org/2000/svg" xmlns:xlink="http://www.w3.org/1999/xlink" xml:space="preserve" xmlns:serif="http://www.serif.com/" style="fill-rule:evenodd;clip-rule:evenodd;stroke-linejoin:round;stroke-miterlimit:2;">
    <g transform="matrix(0.0111292,0,0,0.0111292,-10.5484,-16.9964)">
        <g transform="matrix(13.6966,0,0,13.6966,917.815,1496.51)">
            <path d="M25.144,2.665L25.151,2.665C37.589,2.665 47.687,12.763 47.687,25.201L47.687,25.209L38.558,25.209L38.558,25.201C38.558,17.801 32.55,11.794 25.151,11.794L25.144,11.794L25.144,2.665Z" style="fill:rgb(45,92,127);"/>
        </g>
        <g transform="matrix(13.6966,0,0,-13.6966,917.815,2186.84)">
            <path d="M25.144,2.665L25.151,2.665C37.589,2.665 47.687,12.763 47.687,25.201L47.687,25.209L38.558,25.209L38.558,25.201C38.558,17.801 32.55,11.794 25.151,11.794L25.144,11.794L25.144,2.665Z" style="fill:rgb(59,126,176);"/>
        </g>
        <g transform="matrix(-13.6966,0,0,-13.6966,1606.78,2186.84)">
            <path d="M25.144,2.665L25.151,2.665C37.589,2.665 47.687,12.763 47.687,25.201L47.687,25.209L38.558,25.209L38.558,25.201C38.558,17.801 32.55,11.794 25.151,11.794L25.144,11.794L25.144,2.665Z" style="fill:rgb(92,162,214);"/>
        </g>
        <g transform="matrix(-13.6966,0,0,13.6966,1606.78,1496.51)">
            <path d="M25.144,2.665L25.151,2.665C37.589,2.665 47.687,12.763 47.687,25.201L47.687,25.209L38.558,25.209L38.558,25.201C38.558,17.801 32.55,11.794 25.151,11.794L25.144,11.794L25.144,2.665Z" style="fill:rgb(213,0,83);"/>
        </g>
    </g>
</svg>
