<?xml version="1.0" encoding="UTF-8" standalone="no"?>
<!DOCTYPE svg PUBLIC "-//W3C//DTD SVG 1.1//EN" "http://www.w3.org/Graphics/SVG/1.1/DTD/svg11.dtd">
<svg width="100%" height="100%" viewBox="0 0 7 7" version="1.1" xmlns="http://www.w3.org/2000/svg" xmlns:xlink="http://www.w3.org/1999/xlink" xml:space="preserve" xmlns:serif="http://www.serif.com/" style="fill-rule:evenodd;clip-rule:evenodd;stroke-linejoin:round;stroke-miterlimit:2;">
    <g transform="matrix(0.0111292,0,0,0.0111292,-10.5484,-16.9964)">
        <path d="M1262.3,1533.01C1432.65,1533.01 1570.96,1671.32 1570.96,1841.67C1570.96,2012.03 1432.65,2150.34 1262.3,2150.34C1091.94,2150.34 953.632,2012.03 953.632,1841.67C953.632,1671.32 1091.94,1533.01 1262.3,1533.01ZM1262.3,1658.05C1363.64,1658.05 1445.93,1740.33 1445.93,1841.67C1445.93,1943.02 1363.64,2025.3 1262.3,2025.3C1160.95,2025.3 1078.67,1943.02 1078.67,1841.67C1078.67,1740.33 1160.95,1658.05 1262.3,1658.05Z" style="fill:rgb(120,120,120);"/>
        <g transform="matrix(-13.6966,0,0,13.6966,1606.78,1496.51)">
            <path d="M25.144,2.665L25.151,2.665C37.589,2.665 47.687,12.763 47.687,25.201L47.687,25.209L38.558,25.209L38.558,25.201C38.558,17.801 32.55,11.794 25.151,11.794L25.144,11.794L25.144,2.665Z" style="fill:rgb(213,0,83);"/>
        </g>
    </g>
</svg>
