<?xml version="1.0" encoding="UTF-8" standalone="no"?>
<!DOCTYPE svg PUBLIC "-//W3C//DTD SVG 1.1//EN" "http://www.w3.org/Graphics/SVG/1.1/DTD/svg11.dtd">
<svg width="100%" height="100%" viewBox="0 0 7 7" version="1.1" xmlns="http://www.w3.org/2000/svg" xmlns:xlink="http://www.w3.org/1999/xlink" xml:space="preserve" xmlns:serif="http://www.serif.com/" style="fill-rule:evenodd;clip-rule:evenodd;stroke-linejoin:round;stroke-miterlimit:2;">
    <g transform="matrix(1,0,0,1,-0.255107,0)">
        <g transform="matrix(4.33831,0,0,6.33791,0.643027,5.2168)">
            <path d="M0.267,-0.31C0.297,-0.295 0.319,-0.279 0.334,-0.264C0.348,-0.249 0.358,-0.233 0.365,-0.217C0.373,-0.2 0.376,-0.182 0.376,-0.161C0.376,-0.143 0.373,-0.118 0.366,-0.089L0.354,-0.033C0.347,-0.002 0.344,0.02 0.344,0.035C0.344,0.054 0.352,0.071 0.367,0.085C0.383,0.099 0.415,0.106 0.463,0.106L0.539,0.106L0.539,0.181L0.462,0.181C0.373,0.181 0.315,0.167 0.29,0.139C0.264,0.11 0.251,0.078 0.251,0.041C0.251,0.022 0.253,0.002 0.258,-0.02L0.267,-0.06L0.275,-0.102L0.281,-0.128C0.284,-0.14 0.285,-0.152 0.285,-0.163C0.285,-0.193 0.275,-0.219 0.254,-0.241C0.234,-0.262 0.198,-0.273 0.147,-0.273L0.103,-0.273L0.103,-0.349L0.147,-0.349C0.197,-0.349 0.233,-0.359 0.254,-0.38C0.274,-0.401 0.285,-0.428 0.285,-0.46C0.285,-0.471 0.284,-0.483 0.281,-0.494L0.275,-0.519L0.267,-0.561L0.258,-0.6C0.253,-0.623 0.251,-0.644 0.251,-0.663C0.251,-0.699 0.264,-0.731 0.29,-0.76C0.315,-0.789 0.373,-0.803 0.462,-0.803L0.539,-0.803L0.539,-0.727L0.463,-0.727C0.415,-0.727 0.383,-0.72 0.368,-0.706C0.352,-0.693 0.344,-0.676 0.344,-0.655C0.344,-0.641 0.347,-0.619 0.354,-0.589L0.366,-0.533C0.373,-0.503 0.376,-0.478 0.376,-0.46C0.376,-0.439 0.373,-0.421 0.365,-0.405C0.358,-0.388 0.348,-0.373 0.334,-0.357C0.319,-0.342 0.297,-0.326 0.267,-0.31Z" style="fill:rgb(213,0,83);fill-rule:nonzero;stroke:rgb(213,0,83);stroke-width:0.02px;"/>
        </g>
        <g transform="matrix(4.33831,0,0,6.33791,3.75623,5.2168)">
            <path d="M0.333,-0.31C0.303,-0.326 0.281,-0.342 0.266,-0.357C0.252,-0.373 0.242,-0.388 0.235,-0.405C0.228,-0.421 0.225,-0.439 0.225,-0.46C0.225,-0.478 0.228,-0.503 0.234,-0.533L0.246,-0.589C0.253,-0.619 0.256,-0.641 0.256,-0.656C0.256,-0.676 0.248,-0.693 0.233,-0.706C0.217,-0.72 0.185,-0.727 0.137,-0.727L0.061,-0.727L0.061,-0.803L0.138,-0.803C0.227,-0.803 0.285,-0.789 0.311,-0.76C0.337,-0.731 0.35,-0.699 0.35,-0.663C0.35,-0.643 0.347,-0.623 0.342,-0.6L0.333,-0.561L0.325,-0.519L0.319,-0.494C0.317,-0.481 0.315,-0.47 0.315,-0.458C0.315,-0.428 0.325,-0.402 0.346,-0.381C0.366,-0.359 0.402,-0.349 0.454,-0.349L0.497,-0.349L0.497,-0.273L0.454,-0.273C0.403,-0.273 0.367,-0.262 0.346,-0.241C0.326,-0.22 0.315,-0.193 0.315,-0.161C0.315,-0.15 0.317,-0.139 0.319,-0.128L0.325,-0.102L0.333,-0.06L0.342,-0.02C0.347,0.002 0.35,0.023 0.35,0.042C0.35,0.078 0.337,0.11 0.311,0.139C0.285,0.167 0.227,0.181 0.138,0.181L0.061,0.181L0.061,0.106L0.137,0.106C0.185,0.106 0.217,0.099 0.233,0.085C0.248,0.071 0.256,0.054 0.256,0.034C0.256,0.02 0.253,-0.002 0.246,-0.033L0.234,-0.089C0.228,-0.118 0.225,-0.143 0.225,-0.161C0.225,-0.182 0.228,-0.2 0.235,-0.217C0.242,-0.233 0.252,-0.249 0.266,-0.264C0.281,-0.279 0.303,-0.295 0.333,-0.31Z" style="fill:rgb(213,0,83);fill-rule:nonzero;stroke:rgb(213,0,83);stroke-width:0.02px;"/>
        </g>
    </g>
</svg>
