<?xml version="1.0" encoding="UTF-8"?>
<svg id="Ebene_1" xmlns="http://www.w3.org/2000/svg" version="1.1" viewBox="0 0 36 36">
  <!-- Generator: Adobe Illustrator 30.3.0, SVG Export Plug-In . SVG Version: 2.1.3 Build 182)  -->
  <defs>
    <style>
      .st0 {
        fill: #e3558c;
      }

      .st1 {
        fill: #fff;
      }

      .st2 {
        fill: #d50053;
      }
    </style>
  </defs>
  <path class="st2" d="M22.9,20.1c-1.3,0-2.9,1.3-4.2,1.3s-2.7-1.3-4-1.3-2.7,1.3-4,1.3-2.7-1.3-4-1.3h-1.8l1.4,14.9c0,.7.6,1.2,1.3,1.2h14.2c.7,0,1.2-.5,1.3-1.2l1.4-14.9h-1.5,0Z"/>
  <path d="M22.9,11.7l-2.1,22.2h-12.3l-2.1-22.2h16.5M24,9.4H5.3c-.8,0-1.3.7-1.3,1.5l2.3,24.1c0,.7.6,1.2,1.3,1.2h14.2c.7,0,1.2-.5,1.3-1.2l2.3-24.1c0-.8-.5-1.5-1.3-1.5h0Z"/>
  <g>
    <path class="st2" d="M24.7,19.3c-5.1,0-9.2-4.2-9.2-9.2S19.6.8,24.7.8s9.2,4.2,9.2,9.2-4.2,9.2-9.2,9.2Z"/>
    <path class="st1" d="M24.7,1.5c4.7,0,8.6,3.9,8.6,8.6s-3.9,8.6-8.6,8.6-8.6-3.9-8.6-8.6S20,1.5,24.7,1.5M24.7.2c-5.5,0-9.9,4.4-9.9,9.9s4.4,9.9,9.9,9.9,9.9-4.4,9.9-9.9S30.2.2,24.7.2h0Z"/>
  </g>
  <circle class="st0" cx="24.7" cy="10.1" r="6.9"/>
  <path class="st1" d="M24.7,3.2c-3.8,0-6.9,3.1-6.9,6.9s3.1,6.9,6.9,6.9,6.9-3.1,6.9-6.9-3.1-6.9-6.9-6.9ZM25.1,9.2v-5c1.3,0,2.6.6,3.5,1.4l-3.5,3.5h0ZM24.4,9.2l-3.5-3.5c.9-.8,2.2-1.4,3.5-1.4v5h0ZM24.4,10.9v4.9c-1.3,0-2.6-.6-3.5-1.4l3.5-3.5ZM25.1,10.9l3.5,3.5c-.9.8-2.2,1.4-3.5,1.4v-5h0ZM30.5,9.7h-5l3.5-3.5c.8.9,1.4,2.2,1.4,3.5h0ZM20.4,6.2l3.5,3.5h-5c0-1.3.6-2.6,1.4-3.5h0ZM18.9,10.4h5l-3.5,3.5c-.8-.9-1.4-2.2-1.4-3.5h0ZM29.1,13.9l-3.5-3.5h5c0,1.3-.6,2.6-1.4,3.5Z"/>
</svg>